<svg width="1068" height="1068" viewBox="0 0 1068 1068" version="1.1" xmlns="http://www.w3.org/2000/svg" xmlns:xlink="http://www.w3.org/1999/xlink">
<title>Group</title>
<desc>Created using Figma</desc>
<g id="Canvas" transform="translate(133 -54)">
<g id="Group" opacity="0.12">
<g id="Oval" opacity="0.355525">
<use xlink:href="#path0_stroke" transform="translate(291 478)" fill="#637381"/>
</g>
<g id="Oval 3" opacity="0.355525">
<use xlink:href="#path1_stroke" transform="translate(160 347)" fill="#637381"/>
</g>
<g id="Oval 4" opacity="0.355525">
<use xlink:href="#path2_stroke" transform="translate(-18 169)" fill="#637381"/>
</g>
<g id="Oval 5" opacity="0.355525">
<use xlink:href="#path3_stroke" transform="translate(-132 55)" fill="#637381"/>
</g>
</g>
</g>
<defs>
<path id="path0_stroke" d="M 110.5 221.5C 171.804 221.5 221.5 171.804 221.5 110.5L 220.5 110.5C 220.5 171.251 171.251 220.5 110.5 220.5L 110.5 221.5ZM 221.5 110.5C 221.5 49.1964 171.804 -0.5 110.5 -0.5L 110.5 0.5C 171.251 0.5 220.5 49.7487 220.5 110.5L 221.5 110.5ZM 110.5 -0.5C 49.1964 -0.5 -0.5 49.1964 -0.5 110.5L 0.5 110.5C 0.5 49.7487 49.7487 0.5 110.5 0.5L 110.5 -0.5ZM -0.5 110.5C -0.5 171.804 49.1964 221.5 110.5 221.5L 110.5 220.5C 49.7487 220.5 0.5 171.251 0.5 110.5L -0.5 110.5Z"/>
<path id="path1_stroke" d="M 241 482.5C 374.377 482.5 482.5 374.377 482.5 241L 481.5 241C 481.5 373.824 373.824 481.5 241 481.5L 241 482.5ZM 482.5 241C 482.5 107.623 374.377 -0.5 241 -0.5L 241 0.5C 373.824 0.5 481.5 108.176 481.5 241L 482.5 241ZM 241 -0.5C 107.623 -0.5 -0.5 107.623 -0.5 241L 0.5 241C 0.5 108.176 108.176 0.5 241 0.5L 241 -0.5ZM -0.5 241C -0.5 374.377 107.623 482.5 241 482.5L 241 481.5C 108.176 481.5 0.5 373.824 0.5 241L -0.5 241Z"/>
<path id="path2_stroke" d="M 419.5 839.5C 651.46 839.5 839.5 651.46 839.5 419.5L 838.5 419.5C 838.5 650.907 650.907 838.5 419.5 838.5L 419.5 839.5ZM 839.5 419.5C 839.5 187.54 651.46 -0.5 419.5 -0.5L 419.5 0.5C 650.907 0.5 838.5 188.093 838.5 419.5L 839.5 419.5ZM 419.5 -0.5C 187.54 -0.5 -0.5 187.54 -0.5 419.5L 0.5 419.5C 0.5 188.093 188.093 0.5 419.5 0.5L 419.5 -0.5ZM -0.5 419.5C -0.5 651.46 187.54 839.5 419.5 839.5L 419.5 838.5C 188.093 838.5 0.5 650.907 0.5 419.5L -0.5 419.5Z"/>
<path id="path3_stroke" d="M 533 1066.5C 827.644 1066.5 1066.5 827.644 1066.5 533L 1065.5 533C 1065.5 827.092 827.092 1065.5 533 1065.5L 533 1066.5ZM 1066.5 533C 1066.5 238.356 827.644 -0.5 533 -0.5L 533 0.5C 827.092 0.5 1065.5 238.908 1065.5 533L 1066.5 533ZM 533 -0.5C 238.356 -0.5 -0.5 238.356 -0.5 533L 0.5 533C 0.5 238.908 238.908 0.5 533 0.5L 533 -0.5ZM -0.5 533C -0.5 827.644 238.356 1066.5 533 1066.5L 533 1065.5C 238.908 1065.5 0.5 827.092 0.5 533L -0.5 533Z"/>
</defs>
</svg>
