<svg width="20" height="21" viewBox="0 0 20 21" version="1.1" xmlns="http://www.w3.org/2000/svg" xmlns:xlink="http://www.w3.org/1999/xlink">
<title>facebook</title>
<desc>Created using Figma</desc>
<g id="Canvas" transform="translate(-806 -2274)">
<g id="facebook">
<mask id="mask0_outline" mask-type="alpha">
<g id="Clip 2">
<use xlink:href="#path0_fill" transform="translate(806.227 2274.84)" fill="#FFFFFF"/>
</g>
</mask>
<g id="Fill 1" mask="url(#mask0_outline)">
<use xlink:href="#path1_fill" transform="translate(806.227 2274.84)" fill="#333333"/>
</g>
</g>
</g>
<defs>
<path id="path0_fill" fill-rule="evenodd" d="M 0 20.1561L 19.401 20.1561L 19.401 0L 0 0L 0 20.1561Z"/>
<path id="path1_fill" fill-rule="evenodd" d="M 18.3302 0L 1.07075 0C 0.479329 0 0 0.497984 0 1.11242L 0 19.0436C 0 19.658 0.479329 20.1561 1.07075 20.1561L 10.3627 20.1561L 10.3627 12.3506L 7.83435 12.3506L 7.83435 9.30861L 10.3627 9.30861L 10.3627 7.06527C 10.3627 4.46192 11.8932 3.04432 14.1286 3.04432C 15.1994 3.04432 16.1197 3.12709 16.3878 3.16409L 16.3878 5.8848L 14.8375 5.88556C 13.6218 5.88556 13.3863 6.48572 13.3863 7.36644L 13.3863 9.30861L 16.2858 9.30861L 15.9083 12.3506L 13.3863 12.3506L 13.3863 20.1561L 18.3302 20.1561C 18.9216 20.1561 19.401 19.658 19.401 19.0436L 19.401 1.11242C 19.401 0.497984 18.9216 0 18.3302 0Z"/>
</defs>
</svg>
