<svg width="20" height="21" viewBox="0 0 20 21" version="1.1" xmlns="http://www.w3.org/2000/svg" xmlns:xlink="http://www.w3.org/1999/xlink">
<title>instagram</title>
<desc>Created using Figma</desc>
<g id="Canvas" transform="translate(-861 -2274)">
<g id="instagram">
<mask id="mask0_outline" mask-type="alpha">
<g id="Clip 2">
<use xlink:href="#path0_fill" transform="translate(861.591 2274.84)" fill="#FFFFFF"/>
</g>
</mask>
<g id="Fill 1" mask="url(#mask0_outline)">
<use xlink:href="#path1_fill" transform="translate(861.591 2274.84)" fill="#333333"/>
</g>
</g>
</g>
<defs>
<path id="path0_fill" fill-rule="evenodd" d="M 0 20.1598L 19.4087 20.1598L 19.4087 0L 0 0L 0 20.1598Z"/>
<path id="path1_fill" fill-rule="evenodd" d="M 17.2522 5.60109C 17.2522 5.91041 17.0108 6.1612 16.7131 6.1612L 14.0175 6.1612C 13.7197 6.1612 13.4783 5.91041 13.4783 5.60109L 13.4783 2.80053C 13.4783 2.4912 13.7197 2.24041 14.0175 2.24041L 16.7131 2.24041C 17.0108 2.24041 17.2522 2.4912 17.2522 2.80053L 17.2522 5.60109ZM 17.2522 17.3635C 17.2522 17.6728 17.0108 17.9236 16.7131 17.9236L 2.69572 17.9236C 2.39798 17.9236 2.15659 17.6728 2.15659 17.3635L 2.15659 8.40168L 3.99731 8.40168C 3.85188 8.93582 3.77398 9.4995 3.77398 10.082C 3.77398 13.4848 6.42913 16.2432 9.70441 16.2432C 12.9797 16.2432 15.6348 13.4848 15.6348 10.082C 15.6348 9.4995 15.5569 8.93582 15.4115 8.40168L 17.2522 8.40168L 17.2522 17.3635ZM 9.70428 6.16127C 11.7886 6.16127 13.4782 7.91666 13.4782 10.082C 13.4782 12.2474 11.7886 14.0028 9.70428 14.0028C 7.62 14.0028 5.93037 12.2474 5.93037 10.082C 5.93037 7.91666 7.62 6.16127 9.70428 6.16127ZM 16.713 0L 2.69565 0C 1.20691 0 0 1.25388 0 2.80056L 0 17.3635C 0 18.9102 1.20691 20.164 2.69565 20.164L 16.713 20.164C 18.2018 20.164 19.4087 18.9102 19.4087 17.3635L 19.4087 2.80056C 19.4087 1.25388 18.2018 0 16.713 0Z"/>
</defs>
</svg>
