<svg width="176" height="42" viewBox="0 0 176 42" version="1.1" xmlns="http://www.w3.org/2000/svg" xmlns:xlink="http://www.w3.org/1999/xlink">
<title>Rave</title>
<desc>Created using Figma</desc>
<g id="Canvas" transform="matrix(2 0 0 2 284 1020)">
<g id="Rave">
<g id="Logo">
<g id="Combined-Shape">
<use xlink:href="#path0_fill" transform="translate(-115.835 -508.156)"/>
</g>
</g>
<g id="logomark">
<use xlink:href="#path1_fill" transform="translate(-142 -510)"/>
</g>
</g>
</g>
<defs>
<path id="path0_fill" fill-rule="evenodd" d="M 55.7361 12.7362L 52.0399 16.0693C 48.1741 15.2522 45.6456 12.0795 45.6456 8.19086C 45.6456 3.44879 48.9612 0 53.9347 0C 58.3556 0 61.5607 3.12546 61.6713 7.86755C 61.6713 8.4064 61.6713 8.72974 61.5607 9.05307L 49.4033 9.05307C 49.7349 11.2086 51.2822 12.933 54.1558 12.933C 54.7498 12.933 55.2787 12.8694 55.7361 12.7362ZM 3.86827 2.37106L 3.86827 2.34656L 0 5.83475L 0 15.7351L 3.86827 15.7351L 3.86827 6.25095C 5.19453 4.63431 7.0734 3.77213 9.61541 3.66434L 9.61541 0.107788C 7.18393 0.107788 5.30505 0.969971 3.86827 2.37106ZM 26.6358 0.431122L 22.878 0.431122L 22.878 1.50885C 21.6623 0.646667 20.0045 0.107788 18.1256 0.107788C 13.8152 0.107788 10.2785 3.66434 10.2785 8.0831C 10.2785 12.5019 13.7047 16.0584 18.1256 16.0584C 20.0045 16.0584 21.5518 15.5196 22.878 14.6573L 22.878 15.7351L 26.6358 15.7351L 26.6358 0.431122ZM 18.6782 12.8252C 20.336 12.8252 21.7728 12.2863 22.8781 10.6697L 22.8781 5.49649C 21.7728 3.87988 20.2255 3.341 18.6782 3.341C 16.0257 3.341 14.0363 5.60428 14.0363 8.08307C 14.0363 10.6697 15.9152 12.8252 18.6782 12.8252ZM 35.367 15.7351L 38.7932 15.7351L 45.9771 0.431091L 41.9983 0.431091L 37.1354 10.993L 32.2724 0.431091L 28.1831 0.431091L 35.367 15.7351ZM 49.4033 6.78979C 49.8454 4.63431 51.2822 3.12546 53.8242 3.12546C 56.1452 3.12546 57.4714 4.52652 57.6925 6.78979L 49.4033 6.78979Z"/>
<path id="path1_fill" fill-rule="evenodd" d="M 14.7705 0.159663C 23.9689 -1.20121 18.0819 6.52365 15.2202 8.68499C 17.1825 10.1659 19.1857 12.2472 20.0442 14.6087C 21.6386 18.9314 17.714 19.5718 14.7705 18.4911C 11.5408 17.3704 8.67905 14.9689 6.79848 12.1672C 6.26701 12.1672 5.69466 12.0871 5.16319 11.927C 6.22614 14.8889 6.67583 17.9308 6.38965 20.4123C 6.38965 15.4092 3.97762 10.4461 0.502655 6.32351C -0.723816 4.88259 0.543533 3.80194 1.64734 5.20282C 2.3904 6.21734 3.07291 7.2731 3.69144 8.36477C 4.87703 4.28222 10.764 0.719997 14.7705 0.159663ZM 13.4622 7.52426C 15.261 6.44357 20.7392 0.639949 15.629 1.16027C 12.6855 1.48046 9.12875 4.16214 7.657 5.8832C 9.7011 5.64306 11.7861 6.52362 13.4622 7.52426ZM 7.61612 7.16403C 9.0061 7.04397 10.5187 7.7644 11.6634 8.48486C 10.5596 9.00518 9.33316 9.32537 8.06581 9.40542C 6.18524 9.40542 5.81731 7.32412 7.61612 7.16403ZM 8.39287 12.007C 10.0282 13.8082 12.2767 15.5693 14.6887 16.2097C 16.0787 16.5699 17.6322 16.4098 17.0599 14.4486C 16.4875 12.6475 15.0157 11.0464 13.5849 9.8457C 13.1761 10.1259 12.7264 10.4061 12.2767 10.6062C 11.0502 11.2866 9.74197 11.7669 8.39287 12.007Z"/>
</defs>
</svg>
