<svg width="19" height="20" viewBox="0 0 19 20" version="1.1" xmlns="http://www.w3.org/2000/svg" xmlns:xlink="http://www.w3.org/1999/xlink">
<title>Group</title>
<desc>Created using Figma</desc>
<g id="Canvas" transform="translate(-1932 -1935)">
<g id="Group">
<g id="XMLID 314">
<use xlink:href="#path0_fill" transform="matrix(-1 -5.55112e-17 5.55112e-17 -1 1945.98 1946.62)" fill="#EB5757"/>
</g>
<g id="Vector">
<use xlink:href="#path1_fill" transform="matrix(-1 -5.55112e-17 5.55112e-17 -1 1951 1955)"/>
</g>
<g id="Vector">
<use xlink:href="#path2_fill" transform="matrix(-1 -5.55112e-17 5.55112e-17 -1 1946.34 1950.39)"/>
</g>
</g>
</g>
<defs>
<path id="path0_fill" d="M 1.78392 4.80935L 0.158843 4.80935C 0.0733121 4.80935 -1.24295e-07 4.73555 -1.24295e-07 4.64945L -1.24295e-07 0.159902C -1.24295e-07 0.0738009 0.0733121 -2.50247e-07 0.158843 -2.50247e-07L 1.78392 -2.50247e-07C 1.86945 -2.50247e-07 1.94277 0.0738009 1.94277 0.159902L 1.94277 4.64535C 1.94277 4.73555 1.86945 4.80935 1.78392 4.80935Z"/>
<path id="path1_fill" d="M 17.7659 10.1148C 17.7293 10.041 17.7293 9.9549 17.7659 9.8852L 18.89 7.67118C 19.0122 7.43337 19.0326 7.16277 18.9511 6.90857C 18.8697 6.65437 18.6945 6.44936 18.4583 6.32636L 16.2549 5.20295C 16.1816 5.16605 16.1327 5.09635 16.1205 5.01435L 15.7376 2.55843C 15.6602 2.07052 15.2489 1.71792 14.7601 1.71792C 14.7072 1.71792 14.6542 1.72202 14.6054 1.73022L 12.1657 2.11972C 12.0883 2.13202 12.0028 2.10332 11.9458 2.05002L 10.2026 0.291103C 10.0152 0.102501 9.76677 0 9.50204 0C 9.2373 0 8.98885 0.102501 8.8015 0.291103L 7.05423 2.05002C 7.00536 2.09922 6.94427 2.12382 6.87503 2.12382C 6.86281 2.12382 6.84652 2.12382 6.8343 2.11972L 4.39464 1.73022C 4.34169 1.72202 4.28875 1.71792 4.23987 1.71792C 3.75113 1.71792 3.33976 2.07052 3.26238 2.55843L 2.87953 5.01435C 2.86731 5.09635 2.81844 5.16605 2.74512 5.20295L 0.541694 6.33046C 0.305466 6.44936 0.130332 6.65847 0.0488746 6.91267C -0.0325831 7.16687 -0.0122186 7.43747 0.109968 7.67528L 1.23408 9.8893C 1.27074 9.9631 1.27074 10.0492 1.23408 10.1189L 0.109968 12.3329C -0.0122186 12.5707 -0.0325831 12.8413 0.0488746 13.0955C 0.130332 13.3497 0.305466 13.5547 0.541694 13.6777L 2.74105 14.797C 2.81436 14.8339 2.86324 14.9036 2.87546 14.9857L 3.25831 17.4416C 3.33569 17.9295 3.74705 18.2821 4.2358 18.2821C 4.28875 18.2821 4.34169 18.278 4.39057 18.2698L 6.83023 17.8803C 6.90761 17.868 6.99314 17.8967 7.05016 17.95L 8.79336 19.7089C 8.98071 19.8975 9.22915 20 9.49389 20C 9.75863 20 10.0071 19.8975 10.1944 19.7089L 11.9376 17.95C 11.9946 17.8926 12.0761 17.8639 12.1576 17.8803L 14.5972 18.2698C 14.6502 18.278 14.7031 18.2821 14.7561 18.2821C 15.2448 18.2821 15.6562 17.9295 15.7335 17.4416L 16.1164 14.9857C 16.1286 14.9036 16.1775 14.8339 16.2508 14.797L 18.4542 13.6695C 18.6905 13.5506 18.8656 13.3415 18.9471 13.0873C 19.0285 12.8331 19.0081 12.5625 18.886 12.3247L 17.7659 10.1148ZM 18.2465 12.8618C 18.2262 12.9274 18.1814 12.9807 18.1203 13.0094L 15.9168 14.1369C 15.6358 14.2804 15.4362 14.5551 15.3874 14.8708L 15.0045 17.3268C 14.9841 17.4621 14.8538 17.5605 14.7153 17.5359L 12.2757 17.1464C 12.2227 17.1382 12.1738 17.1341 12.1209 17.1341C 11.8562 17.1341 11.6077 17.2366 11.4204 17.4252L 9.67717 19.1841C 9.5835 19.2784 9.41651 19.2784 9.31876 19.1841L 7.57556 17.4252C 7.39228 17.2407 7.13569 17.1341 6.87503 17.1341C 6.82208 17.1341 6.76913 17.1382 6.72026 17.1464L 4.2806 17.5359C 4.14212 17.5564 4.01179 17.4621 3.99143 17.3227L 3.60857 14.8667C 3.5597 14.551 3.36013 14.2763 3.0791 14.1328L 0.87567 13.0053C 0.814577 12.9766 0.769775 12.9233 0.749411 12.8577C 0.729046 12.7921 0.733119 12.7224 0.765702 12.665L 1.88982 10.451C 2.03237 10.1681 2.03237 9.8278 1.88982 9.5449L 0.765702 7.33087C 0.733119 7.26937 0.729046 7.19967 0.749411 7.13817C 0.769775 7.07257 0.814577 7.01927 0.87567 6.99057L 3.0791 5.86306C 3.36013 5.71956 3.5597 5.44485 3.60857 5.12915L 3.99143 2.67323C 4.01179 2.53793 4.14212 2.43952 4.2806 2.46412L 6.72026 2.85363C 6.7732 2.86183 6.82615 2.86593 6.87503 2.86593C 7.13569 2.86593 7.39228 2.75933 7.57556 2.57483L 9.31876 0.815908C 9.41243 0.721607 9.57942 0.721607 9.67717 0.815908L 11.4204 2.57483C 11.6403 2.79623 11.9661 2.90283 12.2757 2.85363L 14.7153 2.46412C 14.8538 2.44362 14.9841 2.53793 15.0045 2.67323L 15.3874 5.12915C 15.4362 5.44485 15.6358 5.71956 15.9168 5.86306L 18.1203 6.99057C 18.1814 7.01927 18.2262 7.07257 18.2465 7.13817C 18.2669 7.20377 18.2628 7.27347 18.2302 7.33087L 17.1061 9.5449C 16.9636 9.8278 16.9636 10.1681 17.1061 10.451L 18.2302 12.665C 18.2628 12.7265 18.2669 12.7962 18.2465 12.8618Z"/>
<path id="path2_fill" d="M 8.03173 2.96978L 6.19893 2.96978L 6.19893 1.67827C 6.19893 1.02636 6.00343 0.550759 5.62058 0.267856C 5.02594 -0.170848 4.24802 0.0546541 4.15841 0.0833544C 4.00364 0.132555 3.90182 0.276056 3.90182 0.435958L 3.90182 2.04317C 3.90182 3.16249 2.63108 3.57659 2.4926 3.61759C 2.36634 3.48229 2.18714 3.39619 1.99164 3.39619L 0.688317 3.39619C 0.309539 3.39619 -1.24295e-07 3.70779 -1.24295e-07 4.08909L -1.24295e-07 8.25064C -1.24295e-07 8.63194 0.309539 8.94354 0.688317 8.94354L 1.99164 8.94354C 2.14641 8.94354 2.28489 8.89024 2.403 8.80824C 2.65552 9.04194 2.9895 9.18545 3.36013 9.18545L 7.2701 9.18545C 8.19871 9.18545 8.81779 8.67294 8.92369 7.81193L 9.44909 4.4499C 9.45316 4.4294 9.45316 4.413 9.45316 4.3925C 9.44909 3.60939 8.81372 2.96978 8.03173 2.96978ZM 1.93869 8.20554L 0.733119 8.20554L 0.733119 4.1424L 1.93869 4.1424L 1.93869 8.20554ZM 8.19057 7.70533C 8.19057 7.70943 8.19057 7.71353 8.19057 7.71763C 8.1702 7.89803 8.10097 8.44334 7.2701 8.44334L 3.36013 8.44334C 2.98542 8.44334 2.68403 8.13583 2.68403 7.76273L 2.68403 4.3392C 2.68403 4.3392 2.68403 4.3392 2.6881 4.3392C 2.76956 4.3187 4.64716 3.76929 4.64716 2.04317L 4.64716 0.747561C 4.81415 0.735261 5.03001 0.747561 5.19293 0.866463C 5.37621 1.00176 5.46988 1.27647 5.46988 1.67827L 5.46988 3.34289C 5.46988 3.54789 5.63687 3.71599 5.84052 3.71599L 8.04395 3.71599C 8.41051 3.71599 8.70782 4.00709 8.72004 4.372L 8.19057 7.70533Z"/>
</defs>
</svg>
