<svg width="81" height="97" viewBox="0 0 81 97" version="1.1" xmlns="http://www.w3.org/2000/svg" xmlns:xlink="http://www.w3.org/1999/xlink">
<title>ic_android_48px</title>
<desc>Created using Figma</desc>
<g id="Canvas" transform="translate(-670 39)">
<g id="ic_android_48px">
<g id="Shape">
<use xlink:href="#path0_fill" transform="translate(670 -39)" fill="#5F6CC7"/>
</g>
</g>
</g>
<defs>
<path id="path0_fill" fill-rule="evenodd" d="M 60.0817 3.46049L 54.7964 8.7346C 60.8512 13.1398 64.7999 20.2527 64.7999 28.2952L 16.2 28.2952C 16.2 20.273 20.1285 13.16 26.1427 8.7346L 20.8372 3.44029C 20.0474 2.65221 20.0474 1.37915 20.8372 0.591064C 21.627 -0.197021 22.9027 -0.197021 23.6924 0.591064L 29.7067 6.59262C 32.967 4.97604 36.6119 4.04651 40.4999 4.04651C 44.3677 4.04651 47.9924 4.97604 51.2324 6.57242L 57.2264 0.611271C 58.0162 -0.176815 59.2919 -0.176815 60.0817 0.611271C 60.8715 1.39935 60.8715 2.67241 60.0817 3.46049ZM 0 38.3989C 0 35.0445 2.7135 32.3367 6.07501 32.3367C 9.43652 32.3367 12.15 35.0445 12.15 38.3989L 12.15 66.6891C 12.15 70.0435 9.43652 72.7513 6.07501 72.7513C 2.7135 72.7513 0 70.0435 0 66.6891L 0 38.3989ZM 20.25 76.7927C 18.0225 76.7927 16.2 74.9741 16.2 72.7513L 16.2 32.3367L 64.8 32.3367L 64.8 72.7513C 64.8 74.9741 62.9775 76.7927 60.75 76.7927L 56.7 76.7927L 56.7 90.9378C 56.7 94.2922 53.9865 97 50.625 97C 47.2635 97 44.55 94.2922 44.55 90.9378L 44.55 76.7927L 36.45 76.7927L 36.45 90.9378C 36.45 94.2922 33.7365 97 30.375 97C 27.0135 97 24.3 94.2922 24.3 90.9378L 24.3 76.7927L 20.25 76.7927ZM 74.925 32.3367C 71.5635 32.3367 68.85 35.0445 68.85 38.3989L 68.85 66.6891C 68.85 70.0435 71.5635 72.7513 74.925 72.7513C 78.2865 72.7513 81 70.0435 81 66.6891L 81 38.3989C 81 35.0445 78.2865 32.3367 74.925 32.3367ZM 32.4 20.2123L 28.35 20.2123L 28.35 16.1709L 32.4 16.1709L 32.4 20.2123ZM 48.6 20.2123L 52.65 20.2123L 52.65 16.1709L 48.6 16.1709L 48.6 20.2123Z"/>
</defs>
</svg>
