<svg width="42" height="50" viewBox="0 0 42 50" version="1.1" xmlns="http://www.w3.org/2000/svg" xmlns:xlink="http://www.w3.org/1999/xlink">
<title>ic_android_48px</title>
<desc>Created using Figma</desc>
<g id="Canvas" transform="translate(1165 -167)">
<g id="ic_android_48px">
<g id="Shape">
<use xlink:href="#path0_fill" transform="translate(-1164.88 167)" fill="#8FC53F"/>
</g>
</g>
</g>
<defs>
<path id="path0_fill" fill-rule="evenodd" d="M 30.97 1.78377L 28.2456 4.50237C 31.3666 6.77309 33.402 10.4396 33.402 14.5852L 8.35046 14.5852C 8.35046 10.45 10.3755 6.78351 13.4756 4.50237L 10.7408 1.77335C 10.3337 1.36712 10.3337 0.710911 10.7408 0.304676C 11.1478 -0.101559 11.8055 -0.101559 12.2125 0.304676L 15.3127 3.39826C 16.9933 2.56498 18.8721 2.08583 20.8762 2.08583C 22.8699 2.08583 24.7384 2.56498 26.4084 3.38785L 29.4982 0.315098C 29.9053 -0.0911369 30.5629 -0.0911369 30.97 0.315098C 31.377 0.721317 31.377 1.37754 30.97 1.78377ZM 0 19.7932C 0 18.0642 1.39868 16.6684 3.13147 16.6684C 4.86414 16.6684 6.26294 18.0642 6.26294 19.7932L 6.26294 34.3758C 6.26294 36.1049 4.86414 37.5006 3.13147 37.5006C 1.39868 37.5006 0 36.1049 0 34.3758L 0 19.7932ZM 10.4381 39.5839C 9.28992 39.5839 8.35046 38.6464 8.35046 37.5006L 8.35046 16.6684L 33.402 16.6684L 33.402 37.5006C 33.402 38.6464 32.4625 39.5839 31.3143 39.5839L 29.2268 39.5839L 29.2268 46.8752C 29.2268 48.6042 27.828 50 26.0953 50C 24.3625 50 22.9639 48.6042 22.9639 46.8752L 22.9639 39.5839L 18.7886 39.5839L 18.7886 46.8752C 18.7886 48.6042 17.3899 50 15.6571 50C 13.9244 50 12.5258 48.6042 12.5258 46.8752L 12.5258 39.5839L 10.4381 39.5839ZM 38.6212 16.6684C 36.8884 16.6684 35.4897 18.0642 35.4897 19.7932L 35.4897 34.3758C 35.4897 36.1049 36.8884 37.5006 38.6212 37.5006C 40.3539 37.5006 41.7527 36.1049 41.7527 34.3758L 41.7527 19.7932C 41.7527 18.0642 40.3539 16.6684 38.6212 16.6684ZM 16.701 10.4187L 14.6134 10.4187L 14.6134 8.33551L 16.701 8.33551L 16.701 10.4187ZM 25.0515 10.4187L 27.1392 10.4187L 27.1392 8.33551L 25.0515 8.33551L 25.0515 10.4187Z"/>
</defs>
</svg>
