<svg xmlns="http://www.w3.org/2000/svg" viewBox="0 0 125 125" width="50" height="50">
  <defs>
    <style>
      .cls-1 {
        fill: #5c8dbc;
      }

      .cls-2 {
        fill: #1a4674;
      }

      .cls-3 {
        fill: #1b598e;
      }

      .cls-4, .cls-5 {
        fill: #fff;
      }

      .cls-5 {
        font-size: 65px;
        font-family: PingFangTC-Medium, PingFang TC;
        font-weight: 500;
      }
    </style>
  </defs>
  <g id="c" transform="translate(0 -0.268)">
    <path id="Path_304" data-name="Path 304" class="cls-1" d="M255.569,84.72a25.365,25.365,0,0,0-3.124-12.761,24.4,24.4,0,0,0-9.247-9.008Q192.16,33.523,141.1,4.134c-9.17-5.294-18.061-5.1-27.163.269C100.395,12.39,32.59,51.237,12.385,62.94,4.064,67.757.015,75.129.013,84.711Q-.007,143.894,0,203.076a25.476,25.476,0,0,0,2.988,12.517,24.317,24.317,0,0,0,9.386,9.254c20.206,11.7,88.02,50.547,101.56,58.536,9.106,5.373,18,5.565,27.17.269q51.022-29.46,102.105-58.817a24.326,24.326,0,0,0,9.386-9.252,25.51,25.51,0,0,0,2.987-12.518s0-78.889-.013-118.345"/>
    <path id="Path_305" data-name="Path 305" class="cls-2" d="M128.182,143.509,2.988,215.593a24.317,24.317,0,0,0,9.386,9.254c20.206,11.7,88.02,50.547,101.56,58.536,9.106,5.373,18,5.565,27.17.269q51.022-29.46,102.105-58.817a24.326,24.326,0,0,0,9.386-9.252L128.182,143.509"/>
    <path id="Path_306" data-name="Path 306" class="cls-2" d="M91.1,164.861a42.253,42.253,0,0,0,73.518-.245l-36.437-21.107L91.1,164.861"/>
    <path id="Path_307" data-name="Path 307" class="cls-3" d="M255.569,84.72a25.365,25.365,0,0,0-3.124-12.761l-124.263,71.55L252.6,215.583a25.51,25.51,0,0,0,2.987-12.518s0-78.889-.013-118.345"/>
    <path id="Path_309" data-name="Path 309" class="cls-4" d="M164.619,164.616a42.263,42.263,0,1,1-.275-41.927l36.941-21.272a84.875,84.875,0,1,0,.22,84.57l-36.886-21.371"/>
    <text id="_" data-name="#" class="cls-5" transform="translate(215 168.268)"><tspan x="-19.5" y="0">#</tspan></text>
  </g>
</svg>
