<svg width="100" height="96" viewBox="0 0 100 96" version="1.1" xmlns="http://www.w3.org/2000/svg" xmlns:xlink="http://www.w3.org/1999/xlink">
<title>undraw_files1_9ool</title>
<desc>Created using Figma</desc>
<g id="Canvas" transform="translate(-500 -414)">
<g id="undraw_files1_9ool" filter="url(#filter0_d)">
<g id="Vector">
<use xlink:href="#path0_fill" transform="translate(504 425.884)" fill="url(#paint0_linear)"/>
</g>
<g id="Vector">
<use xlink:href="#path1_fill" transform="translate(505.012 426.77)" fill="#FAFAFA"/>
</g>
<g id="Vector">
<use xlink:href="#path2_fill" transform="translate(510.415 434.672)" fill="#E0E0E0"/>
</g>
<g id="Vector">
<use xlink:href="#path3_fill" transform="translate(510.47 447.126)" fill="#E0E0E0"/>
</g>
<g id="Vector">
<use xlink:href="#path4_fill" transform="translate(510.47 465.839)" fill="#5461C0"/>
</g>
<g id="Vector">
<use xlink:href="#path5_fill" transform="translate(544.75 434.735)" fill="#F5F5F5"/>
</g>
<g id="Vector">
<use xlink:href="#path6_fill" transform="translate(544.75 441.816)" fill="#F5F5F5"/>
</g>
<g id="Vector">
<use xlink:href="#path7_fill" transform="translate(505.012 426.77)" fill="url(#paint7_linear)"/>
</g>
<g id="Vector">
<use xlink:href="#path8_fill" transform="translate(504.989 426.77)" fill="#EEEEEE"/>
</g>
<g id="Vector">
<use xlink:href="#path9_fill" transform="translate(521.566 419.564)" fill="url(#paint9_linear)"/>
</g>
<g id="Vector">
<use xlink:href="#path10_fill" transform="translate(522.577 420.448)" fill="#FAFAFA"/>
</g>
<g id="Vector">
<use xlink:href="#path11_fill" transform="translate(527.981 428.351)" fill="#E0E0E0"/>
</g>
<g id="Vector">
<use xlink:href="#path12_fill" transform="translate(528.035 440.804)" fill="#E0E0E0"/>
</g>
<g id="Vector">
<use xlink:href="#path13_fill" transform="translate(528.035 459.518)" fill="#5461C0"/>
</g>
<g id="Vector">
<use xlink:href="#path14_fill" transform="translate(562.316 428.414)" fill="#F5F5F5"/>
</g>
<g id="Vector">
<use xlink:href="#path14_fill" transform="translate(562.316 435.494)" fill="#F5F5F5"/>
</g>
<g id="Vector">
<use xlink:href="#path15_fill" transform="translate(522.577 420.448)" fill="url(#paint16_linear)"/>
</g>
<g id="Vector">
<use xlink:href="#path16_fill" transform="translate(522.555 420.448)" fill="#EEEEEE"/>
</g>
<g id="Vector">
<use xlink:href="#path17_fill" transform="translate(538.753 414)" fill="url(#paint18_linear)"/>
</g>
<g id="Vector">
<use xlink:href="#path18_fill" transform="translate(539.764 414.885)" fill="#FFFFFF"/>
</g>
<g id="Vector">
<use xlink:href="#path19_fill" transform="translate(545.168 422.787)" fill="#E0E0E0"/>
</g>
<g id="Vector">
<use xlink:href="#path20_fill" transform="translate(545.223 435.242)" fill="#E0E0E0"/>
</g>
<g id="Vector">
<use xlink:href="#path21_fill" transform="translate(545.223 453.954)" fill="#5461C0"/>
</g>
<g id="Vector">
<use xlink:href="#path22_fill" transform="translate(579.503 422.851)" fill="#E0E0E0"/>
</g>
<g id="Vector">
<use xlink:href="#path23_fill" transform="translate(579.503 429.93)" fill="#E0E0E0"/>
</g>
<g id="Vector">
<use xlink:href="#path24_fill" transform="translate(579.503 437.012)" fill="#E0E0E0"/>
</g>
<g id="Vector">
<use xlink:href="#path25_fill" transform="translate(539.764 414.885)" fill="url(#paint26_linear)"/>
</g>
<g id="Vector">
<use xlink:href="#path26_fill" transform="translate(539.741 414.885)" fill="#EEEEEE"/>
</g>
</g>
</g>
<defs>
<filter id="filter0_d" filterUnits="userSpaceOnUse" x="500" y="414" width="101" height="96" color-interpolation-filters="sRGB">
<feFlood flood-opacity="0" result="BackgroundImageFix"/>
<feColorMatrix in="SourceAlpha" type="matrix" values="0 0 0 0 0 0 0 0 0 0 0 0 0 0 0 0 0 0 255 0"/>
<feOffset dx="0" dy="4"/>
<feGaussianBlur stdDeviation="2"/>
<feColorMatrix type="matrix" values="0 0 0 0 0.54902 0 0 0 0 0.54902 0 0 0 0 0.54902 0 0 0 0.1 0"/>
<feBlend mode="normal" in2="BackgroundImageFix" result="effect1_dropShadow"/>
<feBlend mode="normal" in="SourceGraphic" in2="effect1_dropShadow" result="shape"/>
</filter>
<linearGradient id="paint0_linear" x1="0" y1="0" x2="1" y2="0" gradientUnits="userSpaceOnUse" gradientTransform="matrix(0 -76.1154 76.0774 0 -9.41474 76.1154)">
<stop offset="0.01" stop-color="#808080" stop-opacity="0.25"/>
<stop offset="0.54" stop-color="#808080" stop-opacity="0.12"/>
<stop offset="1" stop-color="#808080" stop-opacity="0.1"/>
</linearGradient>
<linearGradient id="paint7_linear" x1="0" y1="0" x2="1" y2="0" gradientUnits="userSpaceOnUse" gradientTransform="matrix(0 -10.1149 10.1098 0 -0.442482 10.1149)">
<stop offset="0" stop-color="#B3B3B3" stop-opacity="0.25"/>
<stop offset="0.54" stop-color="#B3B3B3" stop-opacity="0.1"/>
<stop offset="1" stop-color="#B3B3B3" stop-opacity="0.05"/>
</linearGradient>
<linearGradient id="paint9_linear" x1="0" y1="0" x2="1" y2="0" gradientUnits="userSpaceOnUse" gradientTransform="matrix(0 -51233.3 38533.4 0 4128.93 54978.1)">
<stop offset="0.01" stop-color="#808080" stop-opacity="0.25"/>
<stop offset="0.54" stop-color="#808080" stop-opacity="0.12"/>
<stop offset="1" stop-color="#808080" stop-opacity="0.1"/>
</linearGradient>
<linearGradient id="paint16_linear" x1="0" y1="0" x2="1" y2="0" gradientUnits="userSpaceOnUse" gradientTransform="matrix(0 -904.877 825.256 0 1480.13 1481.63)">
<stop offset="0" stop-color="#B3B3B3" stop-opacity="0.25"/>
<stop offset="0.54" stop-color="#B3B3B3" stop-opacity="0.1"/>
<stop offset="1" stop-color="#B3B3B3" stop-opacity="0.05"/>
</linearGradient>
<linearGradient id="paint18_linear" x1="0" y1="0" x2="1" y2="0" gradientUnits="userSpaceOnUse" gradientTransform="matrix(0 -51234.8 38534 0 12833.6 51234.8)">
<stop offset="0.01" stop-color="#808080" stop-opacity="0.25"/>
<stop offset="0.54" stop-color="#808080" stop-opacity="0.12"/>
<stop offset="1" stop-color="#808080" stop-opacity="0.1"/>
</linearGradient>
<linearGradient id="paint26_linear" x1="0" y1="0" x2="1" y2="0" gradientUnits="userSpaceOnUse" gradientTransform="matrix(0 -904.776 825.265 0 2883.26 983.975)">
<stop offset="0" stop-color="#B3B3B3" stop-opacity="0.25"/>
<stop offset="0.54" stop-color="#B3B3B3" stop-opacity="0.1"/>
<stop offset="1" stop-color="#B3B3B3" stop-opacity="0.05"/>
</linearGradient>
<path id="path0_fill" d="M 57.2468 76.1154L 0 76.1154L 0 9.59698L 8.64958 -1.72544e-07L 57.2468 -1.72544e-07L 57.2468 76.1154Z"/>
<path id="path1_fill" d="M 55.3514 73.2071L -2.15573e-08 73.2071L -2.15573e-08 9.2306L 8.36251 3.45088e-08L 55.3514 3.45088e-08L 55.3514 73.2071Z"/>
<path id="path2_fill" d="M 26.9659 0L 0 0L 0 4.55141L 26.9659 4.55141L 26.9659 0Z"/>
<path id="path3_fill" d="M 19.7608 0L 0 0L 0 4.55141L 19.7608 4.55141L 19.7608 0Z"/>
<path id="path4_fill" d="M 44.325 0L 0 0L 0 16.6893L 44.325 16.6893L 44.325 0Z"/>
<path id="path5_fill" d="M 10.0443 0L 0 0L 0 4.55141L 10.0443 4.55141L 10.0443 0Z"/>
<path id="path6_fill" d="M 10.0443 0L 0 0L 0 4.55141L 10.0443 4.55141L 10.0443 0Z"/>
<path id="path7_fill" d="M 9.22486 3.45088e-08L 9.22486 10.1149L -2.15573e-08 10.1149L -2.15573e-08 9.2306L 8.3399 3.45088e-08L 9.22486 3.45088e-08Z"/>
<path id="path8_fill" d="M 0 9.2306L 8.36251 3.45088e-08L 8.36251 9.2306L 0 9.2306Z"/>
<path id="path9_fill" d="M 57.2468 76.1143L -2.0695e-07 76.1143L -2.0695e-07 9.59585L 8.64958 8.62721e-08L 57.2468 8.62721e-08L 57.2468 76.1143Z"/>
<path id="path10_fill" d="M 55.3514 73.2071L -5.51866e-07 73.2071L -5.51866e-07 9.2306L 8.36251 5.17633e-08L 55.3514 5.17633e-08L 55.3514 73.2071Z"/>
<path id="path11_fill" d="M 26.9659 0L 0 0L 0 4.55141L 26.9659 4.55141L 26.9659 0Z"/>
<path id="path12_fill" d="M 19.7608 0L 0 0L 0 4.55141L 19.7608 4.55141L 19.7608 0Z"/>
<path id="path13_fill" d="M 44.325 0L 0 0L 0 16.6893L 44.325 16.6893L 44.325 0Z"/>
<path id="path14_fill" d="M 10.0443 0L -3.31119e-06 0L -3.31119e-06 4.55141L 10.0443 4.55141L 10.0443 0Z"/>
<path id="path15_fill" d="M 9.22486 5.17633e-08L 9.22486 10.1149L -5.51866e-07 10.1149L -5.51866e-07 9.2306L 8.3399 5.17633e-08L 9.22486 5.17633e-08Z"/>
<path id="path16_fill" d="M -2.0695e-07 9.2306L 8.36251 5.17633e-08L 8.36251 9.2306L -2.0695e-07 9.2306Z"/>
<path id="path17_fill" d="M 57.2468 76.1154L -1.10373e-06 76.1154L -1.10373e-06 9.59698L 8.64845 0L 57.2468 0L 57.2468 76.1154Z"/>
<path id="path18_fill" d="M 55.3514 73.2071L -8.27799e-07 73.2071L -8.27799e-07 9.22947L 8.36364 -8.62721e-09L 55.3514 -8.62721e-09L 55.3514 73.2071Z"/>
<path id="path19_fill" d="M 26.966 0L 0 0L 0 4.55141L 26.966 4.55141L 26.966 0Z"/>
<path id="path20_fill" d="M 19.7608 0L 0 0L 0 4.55141L 19.7608 4.55141L 19.7608 0Z"/>
<path id="path21_fill" d="M 44.325 0L 0 0L 0 16.6893L 44.325 16.6893L 44.325 0Z"/>
<path id="path22_fill" d="M 10.0443 0L -2.4834e-06 0L -2.4834e-06 4.55141L 10.0443 4.55141L 10.0443 0Z"/>
<path id="path23_fill" d="M 10.0443 0L -2.4834e-06 0L -2.4834e-06 4.55141L 10.0443 4.55141L 10.0443 0Z"/>
<path id="path24_fill" d="M 10.0443 0L -2.4834e-06 0L -2.4834e-06 4.55141L 10.0443 4.55141L 10.0443 0Z"/>
<path id="path25_fill" d="M 9.226 -8.62721e-09L 9.226 10.1149L -8.27799e-07 10.1149L -8.27799e-07 9.22947L 8.34103 -8.62721e-09L 9.226 -8.62721e-09Z"/>
<path id="path26_fill" d="M 1.2417e-06 9.22947L 8.36364 -8.62721e-09L 8.36364 9.22947L 1.2417e-06 9.22947Z"/>
</defs>
</svg>
