<svg width="51" height="34" viewBox="0 0 51 34" version="1.1" xmlns="http://www.w3.org/2000/svg" xmlns:xlink="http://www.w3.org/1999/xlink">
<title>Shape</title>
<desc>Created using Figma</desc>
<g id="Canvas" transform="translate(1021 -174)">
<g id="Shape">
<use xlink:href="#path0_fill" transform="translate(-1018.9 176.197)"/>
<use xlink:href="#path1_stroke" transform="translate(-1018.9 176.197)"/>
</g>
</g>
<defs>
<path id="path0_fill" fill-rule="evenodd" d="M 17.1821 29.6681C 23.4686 29.6681 29.2117 24.9653 29.2117 14.6198C 29.2117 5.172 24.1917 -0.0007476 17.6344 8.10423e-08C 10.9414 8.10423e-08 5.55975 5.25862 5.55975 15.0476C 5.55975 24.5813 10.7603 29.6681 17.1821 29.6681ZM 1.62939 2.41461C 1.62939 2.92761 1.31702 3.30711 0.781128 3.30711C 0.3349 3.30711 0 2.92761 0 2.41461C 0 1.92337 0.356995 1.52174 0.825745 1.52174C 1.31702 1.52174 1.62939 1.92337 1.62939 2.41461ZM 0.394104 29.2402L 0.394104 8.72025L 1.23523 8.72025L 1.23523 29.2402L 0.394104 29.2402ZM 6.41211 14.8335C 6.41211 22.6777 10.2139 28.7715 17.2219 28.7715C 24.2786 28.7715 28.326 22.4902 28.326 14.7442C 28.326 7.56113 25.083 1.00575 17.6827 1.00575C 10.2825 1.00575 6.41211 7.17787 6.41211 14.8335ZM 38.2402 28.8656C 36.1455 28.8656 33.7099 27.9574 32.2988 27.0169L 31.9166 27.8715C 33.1991 28.8551 35.8065 29.6243 38.0726 29.6243C 43.5446 29.6243 46.6223 26.1195 46.6223 21.8017C 46.6223 17.7829 44.3569 15.936 40.0823 13.8416L 39.7198 13.6691C 36.2199 12.0047 33.5535 10.7366 33.5535 7.179C 33.5535 4.515 35.6396 0.896256 40.4288 0.896256C 42.5655 0.896256 44.5297 1.5495 45.2565 2.06212L 45.5963 1.32413C 44.7413 0.725632 42.903 0.0416261 40.4662 0.0416261C 35.9348 0.0416261 32.6006 3.03488 32.6006 7.26675C 32.6006 11.328 35.8185 12.9821 39.3975 14.5061C 43.3965 16.209 45.7519 18.1913 45.7519 21.9904C 45.7519 26.0842 42.216 28.8656 38.2402 28.8656Z"/>
<path id="path1_stroke" d="M 17.6344 8.10423e-08L 17.6344 1.5L 17.6346 1.5L 17.6344 8.10423e-08ZM 0.394104 8.72025L 0.394104 7.22025L -1.1059 7.22025L -1.1059 8.72025L 0.394104 8.72025ZM 0.394104 29.2402L -1.1059 29.2402L -1.1059 30.7402L 0.394104 30.7402L 0.394104 29.2402ZM 1.23523 8.72025L 2.73523 8.72025L 2.73523 7.22025L 1.23523 7.22025L 1.23523 8.72025ZM 1.23523 29.2402L 1.23523 30.7402L 2.73523 30.7402L 2.73523 29.2402L 1.23523 29.2402ZM 32.2988 27.0169L 33.1307 25.7687L 31.6539 24.7844L 30.9294 26.4046L 32.2988 27.0169ZM 31.9166 27.8715L 30.5473 27.2592L 30.0637 28.3407L 31.0037 29.0617L 31.9166 27.8715ZM 40.0823 13.8416L 40.7423 12.4946L 40.7347 12.4909L 40.727 12.4873L 40.0823 13.8416ZM 39.7198 13.6691L 40.3645 12.3147L 40.364 12.3144L 39.7198 13.6691ZM 45.2565 2.06212L 44.392 3.2879L 45.8652 4.32699L 46.6191 2.68935L 45.2565 2.06212ZM 45.5963 1.32413L 46.9588 1.95136L 47.4826 0.81358L 46.4565 0.0952856L 45.5963 1.32413ZM 39.3975 14.5061L 39.9852 13.126L 39.9852 13.126L 39.3975 14.5061ZM 27.7117 14.6198C 27.7117 19.5177 26.3558 22.8904 24.4393 25.0202C 22.5285 27.1437 19.9411 28.1681 17.1821 28.1681L 17.1821 31.1681C 20.7096 31.1681 24.137 29.8411 26.6694 27.0268C 29.1962 24.2188 30.7117 20.0673 30.7117 14.6198L 27.7117 14.6198ZM 17.6346 1.5C 20.4923 1.49967 22.9573 2.61336 24.7327 4.73051C 26.5257 6.86876 27.7117 10.1519 27.7117 14.6198L 30.7117 14.6198C 30.7117 9.63988 29.3877 5.61274 27.0314 2.80286C 24.6574 -0.0281138 21.3338 -1.50042 17.6342 -1.5L 17.6346 1.5ZM 7.05975 15.0476C 7.05975 10.4218 8.32925 7.03565 10.2247 4.83077C 12.1073 2.64076 14.7024 1.5 17.6344 1.5L 17.6344 -1.5C 13.8734 -1.5 10.4312 -0.0114513 7.94973 2.8751C 5.48108 5.74679 4.05975 9.8844 4.05975 15.0476L 7.05975 15.0476ZM 17.1821 28.1681C 14.3897 28.1681 11.9084 27.0734 10.1036 24.9591C 8.28546 22.8292 7.05975 19.5484 7.05975 15.0476L 4.05975 15.0476C 4.05975 20.0805 5.4343 24.1099 7.82188 26.9069C 10.2227 29.7194 13.5527 31.1681 17.1821 31.1681L 17.1821 28.1681ZM 0.781128 4.80711C 1.42409 4.80711 2.05499 4.56763 2.51427 4.06429C 2.95785 3.57815 3.12939 2.97025 3.12939 2.41461L 0.129395 2.41461C 0.129395 2.37198 0.144749 2.21033 0.298166 2.04219C 0.467285 1.85685 0.67406 1.80711 0.781128 1.80711L 0.781128 4.80711ZM -1.5 2.41461C -1.5 3.56568 -0.67186 4.80711 0.781128 4.80711L 0.781128 1.80711C 1.00798 1.80711 1.21764 1.91223 1.35076 2.06396C 1.47598 2.20667 1.5 2.34625 1.5 2.41461L -1.5 2.41461ZM 0.825745 0.0217439C -0.596028 0.0217439 -1.5 1.22529 -1.5 2.41461L 1.5 2.41461C 1.5 2.53243 1.45653 2.6731 1.34447 2.79574C 1.22706 2.92425 1.03995 3.02174 0.825745 3.02174L 0.825745 0.0217439ZM 3.12939 2.41461C 3.12939 1.3115 2.34656 0.0217439 0.825745 0.0217439L 0.825745 3.02174C 0.630299 3.02174 0.418077 2.92854 0.275718 2.76341C 0.150217 2.61784 0.129395 2.47937 0.129395 2.41461L 3.12939 2.41461ZM -1.1059 8.72025L -1.1059 29.2402L 1.8941 29.2402L 1.8941 8.72025L -1.1059 8.72025ZM 1.23523 7.22025L 0.394104 7.22025L 0.394104 10.2202L 1.23523 10.2202L 1.23523 7.22025ZM 2.73523 29.2402L 2.73523 8.72025L -0.264771 8.72025L -0.264771 29.2402L 2.73523 29.2402ZM 0.394104 30.7402L 1.23523 30.7402L 1.23523 27.7402L 0.394104 27.7402L 0.394104 30.7402ZM 17.2219 27.2715C 14.2124 27.2715 11.9541 25.9896 10.4009 23.8601C 8.81219 21.6821 7.91211 18.536 7.91211 14.8335L 4.91211 14.8335C 4.91211 18.9753 5.91291 22.7981 7.97712 25.628C 10.0767 28.5065 13.2233 30.2715 17.2219 30.2715L 17.2219 27.2715ZM 26.826 14.7442C 26.826 18.3753 25.8751 21.5445 24.2179 23.7657C 22.59 25.9477 20.2489 27.2715 17.2219 27.2715L 17.2219 30.2715C 21.2516 30.2715 24.4625 28.4547 26.6225 25.5596C 28.7532 22.7036 29.826 18.8592 29.826 14.7442L 26.826 14.7442ZM 17.6827 2.50575C 20.865 2.50575 23.0722 3.88113 24.5415 6.0284C 26.055 8.24024 26.826 11.3485 26.826 14.7442L 29.826 14.7442C 29.826 10.9568 28.9755 7.19589 27.0174 4.33426C 25.0151 1.40806 21.9007 -0.494247 17.6827 -0.494247L 17.6827 2.50575ZM 7.91211 14.8335C 7.91211 11.237 8.82372 8.12644 10.4683 5.95416C 12.0777 3.82826 14.4529 2.50575 17.6827 2.50575L 17.6827 -0.494247C 13.5123 -0.494247 10.2522 1.26931 8.07639 4.14337C 5.93568 6.97105 4.91211 10.7744 4.91211 14.8335L 7.91211 14.8335ZM 31.4669 28.2651C 33.081 29.3408 35.8013 30.3656 38.2402 30.3656L 38.2402 27.3656C 36.4898 27.3656 34.3388 26.5739 33.1307 25.7687L 31.4669 28.2651ZM 33.286 28.4838L 33.6681 27.6292L 30.9294 26.4046L 30.5473 27.2592L 33.286 28.4838ZM 38.0726 28.1243C 37.0971 28.1243 36.0188 27.9567 35.0406 27.6752C 34.0428 27.3881 33.2662 27.0162 32.8295 26.6813L 31.0037 29.0617C 31.8495 29.7104 33.0179 30.2149 34.2109 30.5582C 35.4236 30.9072 36.782 31.1243 38.0726 31.1243L 38.0726 28.1243ZM 45.1223 21.8017C 45.1223 23.5981 44.4875 25.1523 43.3527 26.2577C 42.2212 27.3601 40.4801 28.1243 38.0726 28.1243L 38.0726 31.1243C 41.1371 31.1243 43.6708 30.1361 45.4461 28.4066C 47.2182 26.6802 48.1223 24.3231 48.1223 21.8017L 45.1223 21.8017ZM 39.4223 15.1886C 41.5367 16.2246 42.9446 17.1059 43.8391 18.1021C 44.6669 19.0241 45.1223 20.1219 45.1223 21.8017L 48.1223 21.8017C 48.1223 19.4628 47.4449 17.6277 46.0714 16.0979C 44.7645 14.6424 42.9024 13.553 40.7423 12.4946L 39.4223 15.1886ZM 39.075 15.0234L 39.4375 15.196L 40.727 12.4873L 40.3645 12.3147L 39.075 15.0234ZM 32.0535 7.179C 32.0535 9.42415 32.9331 11.0302 34.3343 12.261C 35.6284 13.3976 37.3855 14.22 39.0756 15.0237L 40.364 12.3144C 38.5542 11.4538 37.2282 10.8099 36.3141 10.007C 35.5072 9.29825 35.0535 8.49148 35.0535 7.179L 32.0535 7.179ZM 40.4288 -0.603744C 34.6739 -0.603744 32.0535 3.83087 32.0535 7.179L 35.0535 7.179C 35.0535 5.19913 36.6054 2.39626 40.4288 2.39626L 40.4288 -0.603744ZM 46.1211 0.836332C 45.5506 0.433967 44.6848 0.0858749 43.7594 -0.161977C 42.7997 -0.419027 41.6436 -0.603744 40.4288 -0.603744L 40.4288 2.39626C 41.3507 2.39626 42.245 2.53816 42.9833 2.73589C 43.7559 2.94281 44.2357 3.17765 44.392 3.2879L 46.1211 0.836332ZM 44.2337 0.696895L 43.894 1.43489L 46.6191 2.68935L 46.9588 1.95136L 44.2337 0.696895ZM 40.4662 1.54163C 42.6619 1.54163 44.1828 2.16566 44.736 2.55297L 46.4565 0.0952856C 45.2998 -0.714394 43.1442 -1.45837 40.4662 -1.45837L 40.4662 1.54163ZM 34.1006 7.26675C 34.1006 3.9898 36.6308 1.54163 40.4662 1.54163L 40.4662 -1.45837C 35.2387 -1.45837 31.1006 2.07996 31.1006 7.26675L 34.1006 7.26675ZM 39.9852 13.126C 38.1838 12.359 36.6994 11.6456 35.653 10.7163C 34.6837 9.85558 34.1006 8.82038 34.1006 7.26675L 31.1006 7.26675C 31.1006 9.77438 32.1265 11.5969 33.6609 12.9595C 35.1181 14.2535 37.0322 15.1293 38.8099 15.8862L 39.9852 13.126ZM 47.2519 21.9904C 47.2519 19.7347 46.535 17.9212 45.1782 16.4465C 43.8731 15.0281 42.0506 14.0055 39.9852 13.126L 38.8098 15.8862C 40.7434 16.7096 42.0981 17.5296 42.9705 18.4778C 43.7911 19.3698 44.2519 20.4469 44.2519 21.9904L 47.2519 21.9904ZM 38.2402 30.3656C 42.8485 30.3656 47.2519 27.0959 47.2519 21.9904L 44.2519 21.9904C 44.2519 25.0726 41.5835 27.3656 38.2402 27.3656L 38.2402 30.3656Z"/>
</defs>
</svg>
