<svg width="129" height="83" viewBox="0 0 129 83" version="1.1" xmlns="http://www.w3.org/2000/svg" xmlns:xlink="http://www.w3.org/1999/xlink">
<title>apple-ios</title>
<desc>Created using Figma</desc>
<g id="Canvas" transform="translate(-302 40)">
<g id="apple-ios">
<g id="Shape">
<use xlink:href="#path0_fill" transform="translate(304.276 -38.474)" fill="#5F6CC7"/>
<use xlink:href="#path1_stroke" transform="translate(304.276 -38.474)" fill="#5F6CC7"/>
</g>
</g>
</g>
<defs>
<path id="path0_fill" fill-rule="evenodd" d="M 45.819 79.115C 62.583 79.115 77.898 66.574 77.898 38.986C 77.898 13.792 64.511 -0.00199868 47.025 2.17216e-07C 29.177 2.17216e-07 14.826 14.023 14.826 40.127C 14.826 65.55 28.694 79.115 45.819 79.115ZM 4.345 6.439C 4.345 7.807 3.51199 8.819 2.08301 8.819C 0.893005 8.819 0 7.807 0 6.439C 0 5.129 0.951996 4.058 2.202 4.058C 3.51199 4.058 4.345 5.129 4.345 6.439ZM 1.05099 77.974L 1.05099 23.254L 3.29401 23.254L 3.29401 77.974L 1.05099 77.974ZM 17.099 39.556C 17.099 60.474 27.237 76.724 45.925 76.724C 64.743 76.724 75.536 59.974 75.536 39.318C 75.536 20.163 66.888 2.682 47.154 2.682C 27.42 2.682 17.099 19.141 17.099 39.556ZM 101.974 76.975C 96.388 76.975 89.893 74.553 86.13 72.045L 85.111 74.324C 88.531 76.947 95.484 78.998 101.527 78.998C 116.119 78.998 124.326 69.652 124.326 58.138C 124.326 47.421 118.285 42.496 106.886 36.911C 106.561 36.7562 106.239 36.6028 105.919 36.4508C 96.5864 32.0124 89.476 28.6309 89.476 19.144C 89.476 12.04 95.039 2.39 107.81 2.39C 113.508 2.39 118.746 4.132 120.684 5.499L 121.59 3.531C 119.31 1.935 114.408 0.111 107.91 0.111C 95.826 0.111 86.935 8.093 86.935 19.378C 86.935 30.208 95.516 34.619 105.06 38.683C 115.724 43.224 122.005 48.51 122.005 58.641C 122.005 69.558 112.576 76.975 101.974 76.975Z"/>
<path id="path1_stroke" d="M 47.025 2.17216e-07L 47.025 1.5L 47.0252 1.5L 47.025 2.17216e-07ZM 1.05099 23.254L 1.05099 21.754L -0.449005 21.754L -0.449005 23.254L 1.05099 23.254ZM 1.05099 77.974L -0.449005 77.974L -0.449005 79.474L 1.05099 79.474L 1.05099 77.974ZM 3.29401 23.254L 4.79401 23.254L 4.79401 21.754L 3.29401 21.754L 3.29401 23.254ZM 3.29401 77.974L 3.29401 79.474L 4.79401 79.474L 4.79401 77.974L 3.29401 77.974ZM 86.13 72.045L 86.9619 70.7968L 85.4851 69.8125L 84.7607 71.4327L 86.13 72.045ZM 85.111 74.324L 83.7416 73.7117L 83.2581 74.7933L 84.1981 75.5142L 85.111 74.324ZM 106.886 36.911L 107.546 35.564L 107.539 35.5605L 107.531 35.557L 106.886 36.911ZM 105.919 36.4508L 106.563 35.0962L 106.563 35.0962L 105.919 36.4508ZM 120.684 5.499L 119.819 6.72475L 121.293 7.76392L 122.047 6.12627L 120.684 5.499ZM 121.59 3.531L 122.953 4.15827L 123.476 3.02046L 122.45 2.30215L 121.59 3.531ZM 105.06 38.683L 105.648 37.3029L 105.648 37.3029L 105.06 38.683ZM 76.398 38.986C 76.398 52.5052 72.649 62.148 67.0299 68.3927C 61.4165 74.631 53.8167 77.615 45.819 77.615L 45.819 80.615C 54.5852 80.615 63.025 77.3285 69.26 70.3993C 75.4894 63.4765 79.398 53.0548 79.398 38.986L 76.398 38.986ZM 47.0252 1.5C 55.3472 1.49905 62.6362 4.76774 67.8694 11.0083C 73.1203 17.27 76.398 26.645 76.398 38.986L 79.398 38.986C 79.398 26.133 75.9822 16.014 70.1681 9.08067C 64.3363 2.12626 56.1888 -1.50105 47.0248 -1.5L 47.0252 1.5ZM 16.326 40.127C 16.326 27.3437 19.8378 17.6877 25.37 11.2523C 30.8893 4.83186 38.5155 1.5 47.025 1.5L 47.025 -1.5C 37.6865 -1.5 29.2132 2.17964 23.095 9.29667C 16.9897 16.3988 13.326 26.8063 13.326 40.127L 16.326 40.127ZM 45.819 77.615C 37.675 77.615 30.3511 74.4008 25.0415 68.1807C 19.7186 61.9452 16.326 52.5725 16.326 40.127L 13.326 40.127C 13.326 53.1045 16.8674 63.2258 22.7598 70.1285C 28.6654 77.0467 36.838 80.615 45.819 80.615L 45.819 77.615ZM 2.08301 10.319C 3.17253 10.319 4.15687 9.92138 4.85793 9.15304C 5.5433 8.40191 5.845 7.42213 5.845 6.439L 2.845 6.439C 2.845 6.82386 2.7302 7.03409 2.64181 7.13096C 2.56913 7.21062 2.42247 7.319 2.08301 7.319L 2.08301 10.319ZM -1.5 6.439C -1.5 8.44504 -0.113778 10.319 2.08301 10.319L 2.08301 7.319C 1.93795 7.319 1.82215 7.26598 1.7228 7.15273C 1.61552 7.03046 1.5 6.79816 1.5 6.439L -1.5 6.439ZM 2.202 2.558C -0.00102335 2.558 -1.5 4.43091 -1.5 6.439L 1.5 6.439C 1.5 5.82709 1.90502 5.558 2.202 5.558L 2.202 2.558ZM 5.845 6.439C 5.845 4.51716 4.54157 2.558 2.202 2.558L 2.202 5.558C 2.41589 5.558 2.53851 5.63212 2.62866 5.73669C 2.73566 5.86081 2.845 6.09437 2.845 6.439L 5.845 6.439ZM -0.449005 23.254L -0.449005 77.974L 2.55099 77.974L 2.55099 23.254L -0.449005 23.254ZM 3.29401 21.754L 1.05099 21.754L 1.05099 24.754L 3.29401 24.754L 3.29401 21.754ZM 4.79401 77.974L 4.79401 23.254L 1.79401 23.254L 1.79401 77.974L 4.79401 77.974ZM 1.05099 79.474L 3.29401 79.474L 3.29401 76.474L 1.05099 76.474L 1.05099 79.474ZM 45.925 75.224C 37.0755 75.224 30.3132 71.403 25.7159 65.1003C 21.0831 58.749 18.599 49.7953 18.599 39.556L 15.599 39.556C 15.599 50.2347 18.1839 59.865 23.2921 66.8682C 28.4358 73.92 36.0864 78.224 45.925 78.224L 45.925 75.224ZM 74.036 39.318C 74.036 49.404 71.3987 58.418 66.585 64.87C 61.8005 71.283 54.8326 75.224 45.925 75.224L 45.925 78.224C 55.8354 78.224 63.673 73.79 68.9895 66.664C 74.2769 59.577 77.036 49.888 77.036 39.318L 74.036 39.318ZM 47.154 4.182C 56.5031 4.182 63.1451 8.28878 67.5073 14.6639C 71.9138 21.1037 74.036 29.9363 74.036 39.318L 77.036 39.318C 77.036 29.5447 74.8343 20.0593 69.9832 12.9698C 65.0879 5.81572 57.5389 1.182 47.154 1.182L 47.154 4.182ZM 18.599 39.556C 18.599 29.5798 21.1233 20.7077 25.9222 14.3688C 30.686 8.07622 37.7573 4.182 47.154 4.182L 47.154 1.182C 36.8167 1.182 28.8605 5.51727 23.5303 12.558C 18.2352 19.5523 15.599 29.1172 15.599 39.556L 18.599 39.556ZM 85.2981 73.2932C 89.2641 75.9365 96.0438 78.475 101.974 78.475L 101.974 75.475C 96.7322 75.475 90.5219 73.1695 86.9619 70.7968L 85.2981 73.2932ZM 86.4803 74.9363L 87.4994 72.6573L 84.7607 71.4327L 83.7416 73.7117L 86.4803 74.9363ZM 101.527 77.498C 98.663 77.498 95.554 77.01 92.7502 76.2031C 89.9267 75.3906 87.5294 74.2884 86.0239 73.1338L 84.1981 75.5142C 86.1126 76.9826 88.9018 78.2174 91.9205 79.0861C 94.9589 79.9605 98.3479 80.498 101.527 80.498L 101.527 77.498ZM 122.826 58.138C 122.826 63.5325 120.909 68.346 117.352 71.8113C 113.798 75.2735 108.494 77.498 101.527 77.498L 101.527 80.498C 109.152 80.498 115.248 78.0495 119.445 73.9602C 123.64 69.874 125.826 64.2575 125.826 58.138L 122.826 58.138ZM 106.226 38.258C 111.903 41.0393 116.036 43.5627 118.764 46.6021C 121.427 49.5672 122.826 53.109 122.826 58.138L 125.826 58.138C 125.826 52.45 124.205 48.1708 120.997 44.5979C 117.855 41.0993 113.268 38.3677 107.546 35.564L 106.226 38.258ZM 105.275 37.8054C 105.595 37.9575 105.916 38.1105 106.24 38.265L 107.531 35.557C 107.206 35.4018 106.883 35.2482 106.563 35.0962L 105.275 37.8054ZM 87.976 19.144C 87.976 24.3538 89.9665 27.9706 93.2079 30.8176C 96.342 33.5705 100.668 35.6147 105.275 37.8054L 106.563 35.0962C 101.837 32.8485 97.9419 30.9828 95.1877 28.5636C 92.5406 26.2386 90.976 23.4211 90.976 19.144L 87.976 19.144ZM 107.81 0.89C 94.0733 0.89 87.976 11.3559 87.976 19.144L 90.976 19.144C 90.976 12.7241 96.0047 3.89 107.81 3.89L 107.81 0.89ZM 121.549 4.27325C 120.372 3.44366 118.385 2.60978 116.045 1.98294C 113.67 1.34691 110.805 0.89 107.81 0.89L 107.81 3.89C 110.513 3.89 113.116 4.30409 115.269 4.88081C 117.457 5.46672 119.058 6.18734 119.819 6.72475L 121.549 4.27325ZM 120.227 2.90373L 119.321 4.87173L 122.047 6.12627L 122.953 4.15827L 120.227 2.90373ZM 107.91 1.611C 114.167 1.611 118.751 3.37503 120.73 4.75985L 122.45 2.30215C 119.869 0.494977 114.649 -1.389 107.91 -1.389L 107.91 1.611ZM 88.435 19.378C 88.435 9.04792 96.522 1.611 107.91 1.611L 107.91 -1.389C 95.13 -1.389 85.435 7.13808 85.435 19.378L 88.435 19.378ZM 105.648 37.3029C 100.864 35.2659 96.5474 33.2283 93.4145 30.4462C 90.3588 27.7326 88.435 24.316 88.435 19.378L 85.435 19.378C 85.435 25.27 87.8017 29.4739 91.4225 32.6893C 94.9661 35.8362 99.7122 38.0361 104.472 40.0631L 105.648 37.3029ZM 123.505 58.641C 123.505 53.2194 121.807 48.997 118.635 45.5501C 115.516 42.1595 111.046 39.6015 105.648 37.3029L 104.472 40.0631C 109.738 42.3055 113.741 44.661 116.428 47.5814C 119.063 50.4455 120.505 53.9316 120.505 58.641L 123.505 58.641ZM 101.974 78.475C 113.208 78.475 123.505 70.5696 123.505 58.641L 120.505 58.641C 120.505 68.5463 111.944 75.475 101.974 75.475L 101.974 78.475Z"/>
</defs>
</svg>
