<svg width="246" height="404" viewBox="0 0 246 404" version="1.1" xmlns="http://www.w3.org/2000/svg" xmlns:xlink="http://www.w3.org/1999/xlink">
<title>logomark</title>
<desc>Created using Figma</desc>
<g id="Canvas" transform="translate(171 531)">
<g id="logomark">
<use xlink:href="#path0_fill" transform="translate(-329 -531)" fill="#FAFAFA" fill-opacity="0.1"/>
</g>
</g>
<defs>
<path id="path0_fill" fill-rule="evenodd" d="M 292.337 3.15997C 474.392 -23.7739 357.877 129.116 301.237 171.893C 340.076 201.203 379.723 242.396 396.715 289.135C 428.271 374.69 350.594 387.364 292.337 365.976C 228.415 343.795 171.775 296.264 134.555 240.812C 124.036 240.812 112.709 239.228 102.19 236.059C 123.227 294.68 132.128 354.885 126.464 404C 126.464 304.978 78.7249 206.749 9.94843 125.155C -14.3257 96.6365 10.7575 75.2478 32.6042 102.974C 47.3107 123.053 60.8189 143.949 73.061 165.556C 96.5259 84.7539 213.041 14.2504 292.337 3.15997ZM 266.444 148.92C 302.046 127.531 410.47 12.6658 309.328 22.9641C 251.071 29.3015 180.676 82.3771 151.547 116.441C 192.004 111.688 233.27 129.115 266.444 148.92ZM 150.738 141.79C 178.249 139.414 208.187 153.673 230.842 167.932C 208.996 178.23 184.722 184.568 159.638 186.152C 122.418 186.152 115.136 144.959 150.738 141.79ZM 166.111 237.643C 198.477 273.291 242.979 308.147 290.718 320.822C 318.229 327.951 348.976 324.782 337.648 285.966C 326.32 250.318 297.191 218.631 268.872 194.866C 260.78 200.411 251.88 205.956 242.979 209.917C 218.705 223.384 192.813 232.89 166.111 237.643Z"/>
</defs>
</svg>
