<svg width="1440" height="167" viewBox="0 0 1440 167" version="1.1" xmlns="http://www.w3.org/2000/svg" xmlns:xlink="http://www.w3.org/1999/xlink">
<title>loading</title>
<desc>Created using Figma</desc>
<g id="Canvas" transform="translate(171 -1269)">
<g id="loading">
<g id="Fill 1" opacity="0.2">
<use xlink:href="#path0_fill" transform="matrix(-1 -8.52809e-17 1.75861e-16 -1 1539.96 1435.73)" fill="#FFFFFF" style="mix-blend-mode:overlay"/>
</g>
<g id="Fill 3" opacity="0.4">
<use xlink:href="#path1_fill" transform="matrix(-1 -8.52809e-17 1.75861e-16 -1 1539.96 1413.21)" fill="#FFFFFF" style="mix-blend-mode:overlay"/>
</g>
<g id="Fill 5" opacity="0.6">
<use xlink:href="#path2_fill" transform="matrix(-1 -8.52809e-17 1.75861e-16 -1 1539.96 1379.42)" fill="#FFFFFF" style="mix-blend-mode:overlay"/>
</g>
<g id="Fill 7" opacity="0.01">
<use xlink:href="#path3_fill" transform="matrix(-1 -8.52807e-17 1.75862e-16 -1 1539.96 1386.93)" fill="#FFFFFF"/>
</g>
</g>
</g>
<defs>
<path id="path0_fill" fill-rule="evenodd" d="M 0 0.498574C 0 0.498574 96.7469 50.1556 245.56 49.037C 344.721 48.2938 435.328 -5.72122 567.504 0.498574C 656.759 4.6989 754.881 63.755 854.552 62.9067C 956.351 62.0396 1062.96 2.81082 1217.98 0.498574C 1373 -1.81367 1506.59 74.9296 1630.53 76.7727C 1843.44 79.9408 1990.43 14.4546 1993.96 21.3013L 1993.96 165.43L 0 165.43L 0 0.498574Z"/>
<path id="path1_fill" fill-rule="evenodd" d="M 0 97.1548C 0 97.1548 70.6546 4.10939 321.415 7.01096C 521.135 9.32321 561.579 69.2877 677.749 69.4191C 773.433 69.5242 882.622 4.45097 982.246 7.01096C 1080.95 9.54843 1170.43 75.8416 1267.09 76.3521C 1361.27 76.8476 1440.66 2.45403 1591.24 0.0779741C 1741.82 -2.29808 1786.28 50.2755 1851.93 69.4191C 1954.02 99.1855 1993.96 104.088 1993.96 104.088L 1993.96 144.207L 0 144.207L 0 97.1548Z"/>
<path id="path2_fill" fill-rule="evenodd" d="M 1993.96 27.8659C 1895.73 27.8659 1881.24 79.4823 1571.59 76.4043C 1487.61 75.571 1309.82 2.50628 1217.98 0.130221C 1111.95 -2.61745 1002.34 55.9169 893.841 55.6016C 782.983 55.2788 683.099 3.41842 579.524 0.130221C 465.948 -3.47703 348.528 69.111 255.386 62.5346C 58.9361 48.6686 0 7.06321 0 7.06321L 0 109.59L 1993.96 109.59L 1993.96 27.8659Z"/>
<path id="path3_fill" fill-rule="evenodd" d="M 1993.96 76.2764C 1981.85 82.8114 1900.44 92.1055 1738.57 69.3434C 1662.95 58.7056 1595.85 8.07272 1502.83 6.93537C 1410.21 5.80177 1290.96 64.017 1188.52 62.4067C 1041.18 60.0982 985.229 7.20187 884.021 6.93537C 786.556 6.67636 710.147 45.9807 618.813 48.5407C 482.203 52.3694 363.246 0.280162 255.386 0.00239226C 73.3458 -0.470566 0 69.3434 0 69.3434L 0 116.395L 1993.96 116.395L 1993.96 76.2764Z"/>
</defs>
</svg>
