<svg width="25" height="26" viewBox="0 0 25 26" version="1.1" xmlns="http://www.w3.org/2000/svg" xmlns:xlink="http://www.w3.org/1999/xlink">
<title>Shape</title>
<desc>Created using Figma</desc>
<g id="Canvas" transform="translate(143 572)">
<g id="Shape">
<use xlink:href="#path0_fill" transform="translate(-143 -572)" fill="#FFFFFF"/>
</g>
</g>
<defs>
<path id="path0_fill" fill-rule="evenodd" d="M 17.869 0.199551C 28.9972 -1.50132 21.8752 8.15365 18.4131 10.855C 20.7871 12.706 23.2105 15.3073 24.2492 18.2588C 26.178 23.6616 21.43 24.462 17.869 23.1113C 13.9618 21.7106 10.4998 18.7091 8.22467 15.2072C 7.58171 15.2072 6.8893 15.1072 6.24634 14.9071C 7.53226 18.609 8.0763 22.4109 7.73009 25.5125C 7.73009 19.2593 4.81205 13.0562 0.608097 7.90353C -0.875653 6.10263 0.657551 4.75192 1.99292 6.50277C 2.89186 7.77084 3.71755 9.09036 4.46584 10.4548C 5.90013 5.3522 13.0221 0.899929 17.869 0.199551ZM 16.0679 9.21286C 18.2046 7.8959 24.7117 0.823391 18.6416 1.45749C 15.1452 1.84768 10.9204 5.11569 9.17223 7.21304C 11.6003 6.92038 14.0769 7.9935 16.0679 9.21286ZM 9.18686 9.22946C 10.878 9.07846 12.7184 9.98428 14.1111 10.8901C 12.7681 11.5443 11.2759 11.9469 9.734 12.0476C 7.44596 12.0476 6.99829 9.43075 9.18686 9.22946ZM 9.87778 14.633C 11.8469 16.7874 14.5546 18.8941 17.4591 19.6601C 19.1329 20.091 21.0036 19.8995 20.3144 17.5535C 19.6252 15.399 17.8529 13.4839 16.1299 12.0476C 15.6376 12.3827 15.0961 12.7179 14.5546 12.9572C 13.0777 13.7711 11.5023 14.3457 9.87778 14.633Z"/>
</defs>
</svg>
