<svg width="131" height="83" viewBox="0 0 131 83" version="1.1" xmlns="http://www.w3.org/2000/svg" xmlns:xlink="http://www.w3.org/1999/xlink">
<title>undraw_windows_q9m0</title>
<desc>Created using Figma</desc>
<g id="Canvas" transform="translate(-48 -427)">
<g id="undraw_windows_q9m0" filter="url(#filter0_d)">
<g id="Group" opacity="0.5">
<g id="Vector" opacity="0.5">
<use xlink:href="#path0_fill" transform="matrix(-1 0 0 1 175 427)" fill="url(#paint0_linear)"/>
</g>
</g>
<g id="Vector">
<use xlink:href="#path1_fill" transform="matrix(-1 0 0 1 174.37 427.843)" fill="#F2F2F2"/>
</g>
<g id="Vector">
<use xlink:href="#path2_fill" transform="matrix(-1 0 0 1 174.37 427.843)" fill="#5461C0"/>
</g>
<g id="Vector" opacity="0.1">
<use xlink:href="#path2_fill" transform="matrix(-1 0 0 1 174.37 427.843)"/>
</g>
<g id="Vector">
<use xlink:href="#path3_fill" transform="matrix(-1 0 0 1 170.172 440.906)" fill="#E0E0E0"/>
</g>
<g id="Vector">
<use xlink:href="#path4_fill" transform="matrix(-1 0 0 1 170.172 450.704)" fill="#E0E0E0"/>
</g>
<g id="Vector">
<use xlink:href="#path5_fill" transform="matrix(-1 0 0 1 170.172 453.97)" fill="#E0E0E0"/>
</g>
<g id="Vector">
<use xlink:href="#path6_fill" transform="matrix(-1 0 0 1 170.172 457.237)" fill="#E0E0E0"/>
</g>
<g id="Vector">
<use xlink:href="#path7_fill" transform="matrix(-1 0 0 1 170.172 460.502)" fill="#E0E0E0"/>
</g>
<g id="Vector">
<use xlink:href="#path8_fill" transform="matrix(-1 0 0 1 170.172 463.768)" fill="#E0E0E0"/>
</g>
<g id="Group" opacity="0.5">
<g id="Vector" opacity="0.5">
<use xlink:href="#path9_fill" transform="matrix(-1 0 0 1 106.052 427)" fill="url(#paint10_linear)"/>
</g>
</g>
<g id="Vector">
<use xlink:href="#path10_fill" transform="matrix(1 -1.2293e-16 -1.22001e-16 -1 52.6289 470.827)" fill="#F2F2F2"/>
</g>
<g id="Vector">
<use xlink:href="#path11_fill" transform="matrix(1 -1.2293e-16 -1.22001e-16 -1 52.6289 437.429)" fill="#5461C0"/>
</g>
<g id="Vector" opacity="0.1">
<use xlink:href="#path11_fill" transform="matrix(1 -1.2293e-16 -1.22001e-16 -1 52.6289 437.429)"/>
</g>
<g id="Vector">
<use xlink:href="#path12_fill" transform="matrix(1 -1.2293e-16 -1.22001e-16 -1 56.827 446.491)" fill="#E0E0E0"/>
</g>
<g id="Vector">
<use xlink:href="#path13_fill" transform="matrix(1 -1.2293e-16 -1.22001e-16 -1 56.828 452.602)" fill="#E0E0E0"/>
</g>
<g id="Vector">
<use xlink:href="#path14_fill" transform="matrix(1 -1.2293e-16 -1.22001e-16 -1 56.828 455.867)" fill="#E0E0E0"/>
</g>
<g id="Vector">
<use xlink:href="#path15_fill" transform="matrix(1 -1.2293e-16 -1.22001e-16 -1 56.827 459.132)" fill="#E0E0E0"/>
</g>
<g id="Vector">
<use xlink:href="#path16_fill" transform="matrix(1 -1.2293e-16 -1.22001e-16 -1 56.828 462.398)" fill="#E0E0E0"/>
</g>
<g id="Vector">
<use xlink:href="#path17_fill" transform="matrix(1 -1.2293e-16 -1.22001e-16 -1 56.827 465.665)" fill="#E0E0E0"/>
</g>
<g id="Group" opacity="0.5">
<g id="Vector" opacity="0.5">
<use xlink:href="#path18_fill" transform="matrix(-1 0 0 1 147.126 446.444)" fill="url(#paint20_linear)"/>
</g>
</g>
<g id="Vector">
<use xlink:href="#path19_fill" transform="matrix(-1 0 0 1 146.341 447.494)" fill="#FFFFFF"/>
</g>
<g id="Vector">
<use xlink:href="#path20_fill" transform="matrix(-1 0 0 1 146.341 447.494)" fill="#5461C0"/>
</g>
<g id="Vector">
<use xlink:href="#path21_fill" transform="matrix(-1 0 0 1 141.107 463.779)" fill="#F5F5F5"/>
</g>
<g id="Vector">
<use xlink:href="#path22_fill" transform="matrix(-1 0 0 1 141.107 475.994)" fill="#E0E0E0"/>
</g>
<g id="Vector">
<use xlink:href="#path23_fill" transform="matrix(-1 0 0 1 141.107 480.066)" fill="#E0E0E0"/>
</g>
<g id="Vector">
<use xlink:href="#path24_fill" transform="matrix(-1 0 0 1 141.107 484.137)" fill="#E0E0E0"/>
</g>
<g id="Vector">
<use xlink:href="#path25_fill" transform="matrix(-1 0 0 1 141.107 488.208)" fill="#E0E0E0"/>
</g>
<g id="Vector">
<use xlink:href="#path26_fill" transform="matrix(-1 0 0 1 141.107 492.28)" fill="#E0E0E0"/>
</g>
<g id="Vector">
<use xlink:href="#path27_fill" transform="matrix(-1 0 0 1 138.229 466.144)" fill="#69F0AE"/>
</g>
</g>
</g>
<defs>
<filter id="filter0_d" filterUnits="userSpaceOnUse" x="47" y="427" width="132" height="84" color-interpolation-filters="sRGB">
<feFlood flood-opacity="0" result="BackgroundImageFix"/>
<feColorMatrix in="SourceAlpha" type="matrix" values="0 0 0 0 0 0 0 0 0 0 0 0 0 0 0 0 0 0 255 0"/>
<feOffset dx="0" dy="4"/>
<feGaussianBlur stdDeviation="2"/>
<feColorMatrix type="matrix" values="0 0 0 0 0.54902 0 0 0 0 0.54902 0 0 0 0 0.54902 0 0 0 0.1 0"/>
<feBlend mode="normal" in2="BackgroundImageFix" result="effect1_dropShadow"/>
<feBlend mode="normal" in="SourceGraphic" in2="effect1_dropShadow" result="shape"/>
</filter>
<linearGradient id="paint0_linear" x1="0" y1="0" x2="1" y2="0" gradientUnits="userSpaceOnUse" gradientTransform="matrix(0 -44.565 44.3962 0 4.82768 44.565)">
<stop offset="0" stop-color="#808080" stop-opacity="0.25"/>
<stop offset="0.54" stop-color="#808080" stop-opacity="0.12"/>
<stop offset="1" stop-color="#808080" stop-opacity="0.1"/>
</linearGradient>
<linearGradient id="paint10_linear" x1="0" y1="0" x2="1" y2="0" gradientUnits="userSpaceOnUse" gradientTransform="matrix(-0 -16325 -19800.2 -0 -7129.9 21454.7)">
<stop offset="0" stop-color="#808080" stop-opacity="0.25"/>
<stop offset="0.54" stop-color="#808080" stop-opacity="0.12"/>
<stop offset="1" stop-color="#808080" stop-opacity="0.1"/>
</linearGradient>
<linearGradient id="paint20_linear" x1="0" y1="0" x2="1" y2="0" gradientUnits="userSpaceOnUse" gradientTransform="matrix(0 -25370.9 30771.6 0 18844.6 34250.4)">
<stop offset="0" stop-color="#808080" stop-opacity="0.25"/>
<stop offset="0.54" stop-color="#808080" stop-opacity="0.12"/>
<stop offset="1" stop-color="#808080" stop-opacity="0.1"/>
</linearGradient>
<path id="path0_fill" d="M 54.0516 0L 0 0L 0 44.565L 54.0516 44.565L 54.0516 0Z"/>
<path id="path1_fill" d="M 52.6869 0L 0 0L 0 42.9847L 52.6869 42.9847L 52.6869 0Z"/>
<path id="path2_fill" d="M 52.6869 0L 0 0L 0 9.58743L 52.6869 9.58743L 52.6869 0Z"/>
<path id="path3_fill" d="M 44.2908 0L 0 0L 0 5.58385L 44.2908 5.58385L 44.2908 0Z"/>
<path id="path4_fill" d="M 32.3255 0L 0 0L 0 1.89656L 32.3255 1.89656L 32.3255 0Z"/>
<path id="path5_fill" d="M 20.9904 0L 0 0L 0 1.89656L 20.9904 1.89656L 20.9904 0Z"/>
<path id="path6_fill" d="M 27.7081 0L 0 0L 0 1.89656L 27.7081 1.89656L 27.7081 0Z"/>
<path id="path7_fill" d="M 32.3255 0L 0 0L 0 1.89656L 32.3255 1.89656L 32.3255 0Z"/>
<path id="path8_fill" d="M 10.8103 0L 0 0L 0 1.89656L 10.8103 1.89656L 10.8103 0Z"/>
<path id="path9_fill" d="M 54.0515 0L -2.07115e-06 0L -2.07115e-06 44.565L 54.0515 44.565L 54.0515 0Z"/>
<path id="path10_fill" d="M 52.6869 0L -2.36703e-06 0L -2.36703e-06 42.9847L 52.6869 42.9847L 52.6869 0Z"/>
<path id="path11_fill" d="M 52.6869 0L -2.36703e-06 0L -2.36703e-06 9.58744L 52.6869 9.58744L 52.6869 0Z"/>
<path id="path12_fill" d="M 44.2908 0L 0 0L 0 5.58385L 44.2908 5.58385L 44.2908 0Z"/>
<path id="path13_fill" d="M 32.3255 0L -2.95878e-06 0L -2.95878e-06 1.89656L 32.3255 1.89656L 32.3255 0Z"/>
<path id="path14_fill" d="M 20.9904 0L 0 0L 0 1.89656L 20.9904 1.89656L 20.9904 0Z"/>
<path id="path15_fill" d="M 27.7081 0L 0 0L 0 1.89656L 27.7081 1.89656L 27.7081 0Z"/>
<path id="path16_fill" d="M 32.3255 0L -2.95878e-06 0L -2.95878e-06 1.89656L 32.3255 1.89656L 32.3255 0Z"/>
<path id="path17_fill" d="M 10.8103 0L 0 0L 0 1.89656L 10.8103 1.89656L 10.8103 0Z"/>
<path id="path18_fill" d="M 67.3827 0L 0 0L 0 55.5563L 67.3827 55.5563L 67.3827 0Z"/>
<path id="path19_fill" d="M 65.6823 0L 0 0L 0 53.5855L 65.6823 53.5855L 65.6823 0Z"/>
<path id="path20_fill" d="M 65.6823 0L 0 0L 0 11.9511L 65.6823 11.9511L 65.6823 0Z"/>
<path id="path21_fill" d="M 55.215 0L 0 0L 0 6.96096L 55.215 6.96096L 55.215 0Z"/>
<path id="path22_fill" d="M 40.2987 0L 0 0L 0 2.36371L 40.2987 2.36371L 40.2987 0Z"/>
<path id="path23_fill" d="M 26.1677 0L 0 0L 0 2.36371L 26.1677 2.36371L 26.1677 0Z"/>
<path id="path24_fill" d="M 34.5421 0L 0 0L 0 2.36371L 34.5421 2.36371L 34.5421 0Z"/>
<path id="path25_fill" d="M 40.2987 0L 0 0L 0 2.36371L 40.2987 2.36371L 40.2987 0Z"/>
<path id="path26_fill" d="M 13.4765 0L 0 0L 0 2.36371L 13.4765 2.36371L 13.4765 0Z"/>
<path id="path27_fill" d="M 15.7004 0L 0 0L 0 2.10094L 15.7004 2.10094L 15.7004 0Z"/>
</defs>
</svg>
