<svg width="64" height="34" viewBox="0 0 64 34" version="1.1" xmlns="http://www.w3.org/2000/svg" xmlns:xlink="http://www.w3.org/1999/xlink">
<g id="Canvas" fill="none">
<g id="ic_android_48px">
<g id="php-1">
<g id="Oval">
<path d="M 32 33.3061C 49.6731 33.3061 64 25.8503 64 16.6531C 64 7.45583 49.6731 0 32 0C 14.3269 0 0 7.45583 0 16.6531C 0 25.8503 14.3269 33.3061 32 33.3061Z" fill="#8993BE"/>
</g>
<g id="Shape">
<path fill-rule="evenodd" clip-rule="evenodd" d="M 16.1035 17.6326L 19.6194 0L 23.7947 0L 22.9158 4.57123L 26.8711 4.57123C 30.3872 4.78897 31.7056 6.53033 31.2661 8.70743L 29.728 17.6326L 25.333 17.6326L 26.8713 9.57822C 27.0908 8.48965 27.0908 7.83664 25.5527 7.83664L 22.2566 7.83664L 20.2788 17.6326L 16.1035 17.6326ZM 0 22.2041L 3.51611 4.57123L 11.6465 4.57123C 15.1624 4.789 16.9204 6.53033 16.9204 9.57822C 16.9204 14.8027 12.7454 17.8504 9.00952 17.6326L 5.05444 17.6326L 4.17529 22.2041L 0 22.2041ZM 32.9624 4.57123L 29.4465 22.2041L 33.6216 22.2041L 34.5007 17.6326L 38.4563 17.6326C 42.1919 17.8504 46.3672 14.8027 46.3672 9.57822C 46.3672 6.53033 44.6091 4.789 41.093 4.57123L 32.9624 4.57123Z" transform="translate(9.14307 3.91846)" fill="#232531"/>
</g>
<g id="Path">
<path fill-rule="evenodd" clip-rule="evenodd" d="M 0 6.53061L 1.08856 0L 3.91847 0C 5.4423 0 6.53061 0.653012 6.53061 1.95903C 6.3131 5.65985 4.5715 6.31286 2.61239 6.53061L 0.000248303 6.53061L 0 6.53061Z" transform="translate(15.0205 11.7549)" fill="#8993BE"/>
</g>
<g id="Path_2">
<path fill-rule="evenodd" clip-rule="evenodd" d="M 0 6.53061L 1.08852 0L 3.91857 0C 5.44234 0 6.53061 0.653012 6.53061 1.95903C 6.31311 5.65985 4.57158 6.31286 2.61254 6.53061L 0.000248293 6.53061L 0 6.53061Z" transform="translate(44.4082 11.7549)" fill="#8993BE"/>
</g>
</g>
</g>
</g>
</svg>

