<svg width="88" height="21" viewBox="0 0 88 21" version="1.1" xmlns="http://www.w3.org/2000/svg" xmlns:xlink="http://www.w3.org/1999/xlink">
<title>Flutterwave</title>
<desc>Created using Figma</desc>
<g id="Canvas" transform="translate(-1372 660)">
<g id="Logo">
<g id="Combined-Shape">
<use xlink:href="#path0_fill" transform="translate(1398.17 -658.156)" fill="#FFFFFF"/>
</g>
</g>
<g id="logomark">
<use xlink:href="#path1_fill" transform="translate(1372 -660)" fill="#FFFFFF"/>
</g>
</g>
<defs>
<path id="path0_fill" fill-rule="evenodd" d="M 55.7361 12.7362L 52.0398 16.0693C 48.1741 15.2522 45.6455 12.0795 45.6455 8.19086C 45.6455 3.44879 48.9612 0 53.9347 0C 58.3556 0 61.5607 3.12549 61.6711 7.86755C 61.6711 8.40643 61.6711 8.72974 61.5607 9.05304L 49.4032 9.05304C 49.7349 11.2086 51.2821 12.9329 54.1556 12.9329C 54.7498 12.9329 55.2786 12.8694 55.7361 12.7362ZM 3.86829 2.37103L 3.86829 2.34656L 0 5.83472L 0 15.7351L 3.86829 15.7351L 3.86829 6.25092C 5.19458 4.63434 7.07336 3.77209 9.61536 3.66437L 9.61536 0.107788C 7.18396 0.107788 5.30505 0.969971 3.86829 2.37103ZM 26.6359 0.431091L 22.8781 0.431091L 22.8781 1.50885C 21.6624 0.646667 20.0045 0.107788 18.1256 0.107788C 13.8153 0.107788 10.2786 3.66437 10.2786 8.08313C 10.2786 12.5018 13.7047 16.0584 18.1256 16.0584C 20.0045 16.0584 21.5518 15.5195 22.8781 14.6573L 22.8781 15.7351L 26.6359 15.7351L 26.6359 0.431091ZM 18.6782 12.8251C 20.3361 12.8251 21.7728 12.2863 22.8781 10.6697L 22.8781 5.49652C 21.7728 3.87988 20.2255 3.341 18.6782 3.341C 16.0256 3.341 14.0363 5.60425 14.0363 8.08307C 14.0363 10.6697 15.9152 12.8251 18.6782 12.8251ZM 35.3671 15.735L 38.7932 15.735L 45.9772 0.431091L 41.9983 0.431091L 37.1354 10.993L 32.2725 0.431091L 28.1831 0.431091L 35.3671 15.735ZM 49.4033 6.78979C 49.8455 4.63434 51.2822 3.12549 53.8242 3.12549C 56.1451 3.12549 57.4714 4.52655 57.6925 6.78979L 49.4033 6.78979Z"/>
<path id="path1_fill" fill-rule="evenodd" d="M 14.7705 0.159658C 23.9688 -1.20118 18.0819 6.52361 15.2202 8.68499C 17.1824 10.1659 19.1856 12.2472 20.0441 14.6087C 21.6386 18.9314 17.7139 19.5718 14.7705 18.4911C 11.5407 17.3704 8.67903 14.9689 6.79842 12.1672C 6.26692 12.1672 5.69466 12.0871 5.16316 11.927C 6.22603 14.8888 6.67573 17.9308 6.3896 20.4123C 6.3896 15.4092 3.97761 10.4461 0.502639 6.32348C -0.723801 4.88262 0.543533 3.80193 1.64729 5.20281C 2.39033 6.21734 3.07283 7.27306 3.69136 8.3648C 4.87703 4.28222 10.764 0.720022 14.7705 0.159658ZM 13.4622 7.52422C 15.2609 6.44353 20.7392 0.639882 15.629 1.16021C 12.6854 1.48046 9.12874 4.1621 7.65694 5.88317C 9.701 5.64306 11.786 6.52361 13.4622 7.52422ZM 7.61616 7.16405C 9.00606 7.044 10.5188 7.76446 11.6634 8.48485C 10.5596 9.00524 9.33321 9.32543 8.06587 9.40545C 6.18526 9.40545 5.81734 7.32415 7.61616 7.16405ZM 8.39278 12.0071C 10.028 13.8082 12.2766 15.5693 14.6886 16.2096C 16.0786 16.5699 17.6322 16.4098 17.0598 14.4486C 16.4874 12.6475 15.0157 11.0464 13.5848 9.84569C 13.176 10.1258 12.7263 10.4061 12.2766 10.6062C 11.0501 11.2866 9.7419 11.7669 8.39278 12.0071Z"/>
</defs>
</svg>
