<svg width="57" height="50" viewBox="0 0 57 50" version="1.1" xmlns="http://www.w3.org/2000/svg" xmlns:xlink="http://www.w3.org/1999/xlink">
<title>download</title>
<desc>Created using Figma</desc>
<g id="Canvas" transform="translate(1172 77)">
<g id="download">
<g id="Oval">
<use xlink:href="#path0_fill" transform="translate(-1149 -57)" fill="#606FC7"/>
</g>
<g id="Group">
<g id="Oval">
<use xlink:href="#path1_stroke" transform="translate(-1171 -62.5)" fill="#606FC7"/>
</g>
<g id="Oval">
<use xlink:href="#path1_stroke" transform="matrix(0.5 0.866025 -0.866025 0.5 -1148.16 -81.0657)" fill="#606FC7"/>
</g>
<g id="Oval">
<use xlink:href="#path1_stroke" transform="matrix(-0.5 0.866025 -0.866025 -0.5 -1120.66 -70.5657)" fill="#606FC7"/>
</g>
</g>
</g>
</g>
<defs>
<path id="path0_fill" d="M 5 10C 7.76142 10 10 7.76142 10 5C 10 2.23858 7.76142 0 5 0C 2.23858 0 0 2.23858 0 5C 0 7.76142 2.23858 10 5 10Z"/>
<path id="path1_stroke" d="M 27.5 21.5C 35.1389 21.5 42.0771 20.3187 47.1238 18.3917C 49.6454 17.4289 51.7205 16.2703 53.174 14.9582C 54.6273 13.6462 55.5 12.1405 55.5 10.5L 54.5 10.5C 54.5 11.759 53.8336 13.0155 52.5039 14.2159C 51.1742 15.4163 49.222 16.5202 46.7671 17.4575C 41.8608 19.3308 35.049 20.5 27.5 20.5L 27.5 21.5ZM 55.5 10.5C 55.5 8.85948 54.6273 7.35378 53.174 6.04178C 51.7205 4.72973 49.6454 3.57108 47.1238 2.60827C 42.0771 0.681343 35.1389 -0.5 27.5 -0.5L 27.5 0.5C 35.049 0.5 41.8608 1.66916 46.7671 3.54249C 49.222 4.47981 51.1742 5.58372 52.5039 6.78407C 53.8336 7.98447 54.5 9.24102 54.5 10.5L 55.5 10.5ZM 27.5 -0.5C 19.8611 -0.5 12.9229 0.681343 7.87621 2.60827C 5.35458 3.57108 3.27949 4.72973 1.82605 6.04178C 0.372658 7.35378 -0.5 8.85948 -0.5 10.5L 0.5 10.5C 0.5 9.24102 1.16636 7.98447 2.49613 6.78407C 3.82583 5.58372 5.77803 4.47981 8.23291 3.54249C 13.1392 1.66916 19.951 0.5 27.5 0.5L 27.5 -0.5ZM -0.5 10.5C -0.5 12.1405 0.372658 13.6462 1.82605 14.9582C 3.27949 16.2703 5.35458 17.4289 7.87621 18.3917C 12.9229 20.3187 19.8611 21.5 27.5 21.5L 27.5 20.5C 19.951 20.5 13.1392 19.3308 8.23291 17.4575C 5.77803 16.5202 3.82583 15.4163 2.49613 14.2159C 1.16636 13.0155 0.5 11.759 0.5 10.5L -0.5 10.5Z"/>
</defs>
</svg>
