<svg width="370" height="634" viewBox="0 0 740 1268" version="1.1" xmlns="http://www.w3.org/2000/svg" xmlns:xlink="http://www.w3.org/1999/xlink">
<title>logomark</title>
<desc>Created using Figma</desc>
<g id="Canvas" transform="matrix(2 0 0 2 -1798 1366)">
<g id="logomark">
<use xlink:href="#path0_fill" transform="matrix(-0.970906 0.239461 -0.239461 -0.970906 1723.71 -194.387)" fill="#FAFAFA" fill-opacity="0.1"/>
</g>
</g>
<defs>
<path id="path0_fill" fill-rule="evenodd" d="M 510.98 5.52337C 829.197 -41.5548 625.538 225.683 526.537 300.454C 594.423 351.687 663.724 423.688 693.424 505.383C 748.582 654.925 612.809 677.08 510.98 639.694C 399.25 600.924 300.249 517.845 235.191 420.919C 216.805 420.919 197.005 418.15 178.619 412.611C 215.391 515.076 230.948 620.309 221.048 706.158C 221.048 533.076 137.604 361.379 17.389 218.76C -25.04 168.912 18.8032 131.527 56.9894 179.99C 82.6951 215.087 106.306 251.611 127.704 289.377C 168.719 148.143 372.378 24.9085 510.98 5.52337ZM 465.722 260.299C 527.951 222.913 717.467 22.1388 540.68 40.1393C 438.85 51.2165 315.806 143.988 264.892 203.528C 335.607 195.22 407.736 225.683 465.722 260.299ZM 263.477 247.838C 311.563 243.684 363.892 268.607 403.493 293.531C 365.307 311.532 322.878 322.609 279.034 325.378C 213.977 325.378 201.248 253.376 263.477 247.838ZM 290.349 415.38C 346.921 477.69 424.707 538.614 508.151 560.769C 556.237 573.231 609.981 567.692 590.18 499.844C 570.38 437.535 519.465 382.149 469.965 340.609C 455.822 350.302 440.264 359.994 424.707 366.917C 382.278 390.456 337.021 407.072 290.349 415.38Z"/>
</defs>
</svg>
