<svg width="18" height="19" viewBox="0 0 21 22" version="1.1" xmlns="http://www.w3.org/2000/svg" xmlns:xlink="http://www.w3.org/1999/xlink">
<title>search icon (Stroke)</title>
<desc>Created using Figma</desc>
<g id="Canvas" transform="translate(-977 656)">
<g id="search icon (Stroke)">
<use xlink:href="#path0_fill" transform="translate(977 -656)" fill="#FFFFFF"/>
</g>
</g>
<defs>
<path id="path0_fill" fill-rule="evenodd" d="M 15.007 14.9529L 15.3141 14.5452C 16.4187 13.0791 17.0842 11.2337 17.0842 9.22562C 17.0842 4.44574 13.3626 0.6 8.84268 0.6C 4.32157 0.6 0.6 4.4458 0.6 9.22562C 0.6 14.0043 4.32152 17.8501 8.84268 17.8501C 10.6149 17.8501 12.257 17.2537 13.6086 16.2468L 14.0336 15.9303L 18.6359 20.7332C 18.636 20.7333 18.6358 20.7331 18.6359 20.7332C 18.7675 20.87 18.9333 20.934 19.097 20.934C 19.2593 20.934 19.4248 20.8706 19.5566 20.7337C 19.8267 20.4518 19.8274 19.984 19.5565 19.7001C 19.5563 19.7 19.5566 19.7002 19.5565 19.7001L 15.007 14.9529ZM 19.9898 19.2851C 20.4826 19.8006 20.4826 20.6344 19.9898 21.1488C 19.7428 21.406 19.4199 21.534 19.097 21.534C 18.773 21.534 18.4501 21.406 18.2031 21.1488L 13.967 16.728C 12.5191 17.8066 10.7528 18.4501 8.84268 18.4501C 3.96646 18.4501 0 14.3114 0 9.22562C 0 4.13867 3.96646 0 8.84268 0C 13.7178 0 17.6842 4.13867 17.6842 9.22562C 17.6842 11.368 16.9739 13.3394 15.7933 14.9062L 19.9898 19.2851ZM 1.92539 9.22563C 1.92539 5.28491 5.00513 2.03638 8.84272 2.03638C 12.6806 2.03638 15.7578 5.2852 15.7578 9.22563C 15.7578 13.1662 12.6805 16.4137 8.84272 16.4137C 5.00526 16.4137 1.92539 13.1665 1.92539 9.22563ZM 8.84272 2.63638C 5.36003 2.63638 2.52539 5.59225 2.52539 9.22563C 2.52539 12.859 5.36003 15.8137 8.84272 15.8137C 12.3254 15.8137 15.1578 12.859 15.1578 9.22563C 15.1578 5.59225 12.3254 2.63638 8.84272 2.63638Z"/>
</defs>
</svg>
