<svg width="14" height="14" viewBox="0 0 14 14" version="1.1" xmlns="http://www.w3.org/2000/svg" xmlns:xlink="http://www.w3.org/1999/xlink">
<title>Icon</title>
<desc>Created using Figma</desc>
<g id="Canvas" transform="translate(665 194)">
<g id="Icon">
<use xlink:href="#path0_fill" transform="translate(-665 -194)" fill="#919EAB"/>
</g>
</g>
<defs>
<path id="path0_fill" fill-rule="evenodd" d="M 5.24995 8.74986C 3.3171 8.74986 1.75 7.18276 1.75 5.24992C 1.75 3.31707 3.3171 1.74997 5.24995 1.74997C 7.18279 1.74997 8.74989 3.31707 8.74989 5.24992C 8.74989 7.18276 7.18279 8.74986 5.24995 8.74986ZM 13.7434 12.5062L 9.52598 8.28875C 10.1367 7.43038 10.4998 6.3839 10.4998 5.24992C 10.4998 2.35109 8.14875 0 5.24992 0C 2.35109 0 0 2.35109 0 5.24992C 0 8.14875 2.35109 10.4998 5.24992 10.4998C 6.3839 10.4998 7.43038 10.1367 8.28875 9.52598L 12.5062 13.7434C 12.6768 13.914 12.9008 13.9998 13.1248 13.9998C 13.3488 13.9998 13.5728 13.914 13.7434 13.7434C 14.0855 13.4013 14.0855 12.8483 13.7434 12.5062Z"/>
</defs>
</svg>
