<svg width="177" height="51" viewBox="0 0 177 51" version="1.1" xmlns="http://www.w3.org/2000/svg" xmlns:xlink="http://www.w3.org/1999/xlink">
<g id="Canvas" fill="none">
<g id="Slack_RGB">
<g id="Group">
<g id="Shape">
<path d="M 8.62243 3.05333C 7.85007 0.736252 5.3704 -0.523911 3.05333 0.207797C 0.736252 0.980154 -0.523911 3.45983 0.207797 5.7769L 11.6306 40.8989C 12.4029 43.0533 14.7606 44.2728 16.9964 43.6224C 19.3541 42.9314 20.7769 40.4517 20.0045 38.1753C 20.0045 38.094 8.62243 3.05333 8.62243 3.05333Z" transform="translate(23.8166 1.23926)" fill="#ECB32D"/>
</g>
<g id="Shape_2">
<path d="M 8.62243 3.05333C 7.85007 0.736252 5.3704 -0.523911 3.05333 0.207797C 0.736252 0.980154 -0.523911 3.45983 0.207797 5.7769L 11.6306 40.8989C 12.4029 43.0533 14.7606 44.2728 16.9964 43.6224C 19.3541 42.9314 20.7769 40.4517 20.0045 38.1753C 20.0045 38.094 8.62243 3.05333 8.62243 3.05333Z" transform="translate(6.13367 6.97119)" fill="#63C1A0"/>
</g>
<g id="Shape_3">
<path d="M 40.7847 8.62243C 43.1018 7.85007 44.3619 5.3704 43.6302 3.05333C 42.8579 0.736252 40.3782 -0.523911 38.0611 0.207797L 2.89852 11.6712C 0.744047 12.4436 -0.475465 14.8013 0.174941 17.0371C 0.865998 19.3948 3.34567 20.8176 5.6221 20.0452C 5.7034 20.0452 40.7847 8.62243 40.7847 8.62243Z" transform="translate(6.04459 24.7354)" fill="#E01A59"/>
</g>
<g id="Shape_4">
<path d="M 2.72358 11.1382C 5 10.4065 7.96748 9.43089 11.1382 8.41463C 10.4065 6.13821 9.43089 3.17073 8.41463 0L 0 2.72358L 2.72358 11.1382Z" transform="translate(13.5366 32.1787)" fill="#331433"/>
</g>
<g id="Shape_5">
<path d="M 2.72358 11.1382C 5.89431 10.122 8.86179 9.14634 11.1382 8.41463C 10.4065 6.13821 9.43089 3.17073 8.41463 0L 0 2.72358L 2.72358 11.1382Z" transform="translate(31.2602 26.4062)" fill="#D62027"/>
</g>
<g id="Shape_6">
<path d="M 40.744 8.62243C 43.0611 7.85007 44.3213 5.3704 43.5896 3.05333C 42.8172 0.736252 40.3375 -0.523911 38.0205 0.207797L 2.89852 11.6306C 0.744047 12.4029 -0.475465 14.7606 0.174941 16.9964C 0.865998 19.3541 3.34567 20.7769 5.6221 20.0045C 5.7034 20.0045 40.744 8.62243 40.744 8.62243Z" transform="translate(0.312866 7.05225)" fill="#89D3DF"/>
</g>
<g id="Shape_7">
<path d="M 2.72358 11.1382C 5 10.4065 7.96748 9.43089 11.1382 8.41463C 10.122 5.2439 9.14634 2.27642 8.41463 0L 0 2.72358L 2.72358 11.1382Z" transform="translate(7.80487 14.4551)" fill="#258B74"/>
</g>
<g id="Shape_8">
<path d="M 2.72358 11.1382C 5.89431 10.122 8.86179 9.14634 11.1382 8.41463C 10.122 5.2439 9.14634 2.27642 8.41463 0L 0 2.72358L 2.72358 11.1382Z" transform="translate(25.4878 8.72363)" fill="#819C3C"/>
</g>
</g>
<g id="Shape_9">
<path d="M 20.0779 2.04927C 21.5996 2.74557 21.7197 3.23707 20.5184 5.57171C 19.277 7.9473 18.9967 8.11114 17.475 7.49676C 15.5929 6.67759 13.1502 6.06321 11.5885 6.06321C 9.02566 6.06321 7.3438 7.00526 7.3438 8.4388C 7.3438 13.149 22 10.6096 22 20.6035C 22 25.6414 17.7553 29 11.4283 29C 8.10464 29 3.98008 27.8532 1.13693 26.3787C -0.264615 25.6414 -0.384748 25.2318 0.856625 22.8153C 1.89778 20.7264 2.25817 20.4806 3.77986 21.136C 6.18251 22.2009 9.26592 23.061 11.3082 23.061C 13.6307 23.061 15.1925 22.078 15.1925 20.6854C 15.1925 16.139 0.25596 18.3098 0.25596 8.60264C 0.25596 3.44186 4.46061 0.00134242 10.7476 0.00134242C 13.7909 -0.0396161 17.515 0.861472 20.0779 2.04927Z" transform="translate(61 12)" fill="white"/>
</g>
<g id="Shape_10">
<path d="M 6 1.98556L 6 38.8677C 6 39.4338 5.45783 40 4.73494 40L 1.26506 40C 0.506024 40 0 39.3934 0 38.8677L 0 1.98556C 0 0.165723 0.46988 0.00395923 3 0.00395923C 5.89157 -0.0364817 6 0.206164 6 1.98556Z" transform="translate(87 0)" fill="white"/>
</g>
<g id="Shape_11">
<path fill-rule="evenodd" clip-rule="evenodd" d="M 24 27.2797L 24 11.1823C 24 4.13696 19.2957 0 11.8406 0C 8.53162 0 4.94348 1.14685 2.27246 2.9082C 0.877075 3.85034 0.837158 4.25989 2.27246 6.5127C 3.74756 8.7655 4.06641 8.80652 5.42188 8.0282C 7.17603 6.96326 9.40869 6.22595 11.2026 6.22595C 15.0698 6.22595 17.3422 7.9873 17.3422 10.9364L 17.3422 12.7797C 15.5083 12.0015 13.2758 11.5509 10.804 11.5509C 4.30566 11.5509 0 15.1963 0 20.5621C 0 25.6003 3.82727 29 9.5282 29C 12.4784 29 15.4286 27.7712 17.4618 25.4364L 17.4219 27.1567C 17.3422 28.0579 17.9402 28.7133 18.8173 28.7133L 22.6046 28.7133C 23.402 28.7133 24 28.1398 24 27.2797ZM 10.3257 23.7162C 7.97351 23.7162 6.37878 22.4464 6.37878 20.5212C 6.37878 18.1455 8.73096 16.4252 12.319 16.4252C 13.9535 16.4252 15.8273 16.7528 17.3423 17.3673L 17.3423 19.8658C 15.8273 22.2825 13.196 23.7162 10.3257 23.7162Z" transform="translate(96 12)" fill="white"/>
</g>
<g id="Shape_12">
<path d="M 22.6087 2.12694C 23.9945 2.94499 24.0341 3.39492 22.5295 5.80818C 21.1041 8.09873 20.8665 8.22144 19.3223 7.44429C 18.1741 6.83075 16.3131 6.29901 14.8085 6.29901C 10.0571 6.29901 6.88952 9.53032 6.88952 14.4386C 6.88952 19.5106 10.0571 22.9464 14.8085 22.9464C 16.4715 22.9464 18.5304 22.292 19.8766 21.5148C 21.2625 20.6968 21.5396 20.7377 23.0046 22.9464C 24.3113 24.9915 24.3113 25.4824 23.1234 26.3413C 20.9853 27.8547 17.6593 29 14.6897 29C 5.89964 29 0 23.1918 0 14.4386C 0 5.76728 5.89964 0 14.7689 0C 17.4614 0 20.629 0.940762 22.6087 2.12694Z" transform="translate(124 12)" fill="white"/>
</g>
<g id="Shape_13">
<path d="M 24.4317 36.3413C 25.5476 37.7498 25.1092 38.273 22.3193 39.2791C 19.4895 40.3255 19.091 40.245 18.0946 38.9572L 10.1632 28.2922L 6.61608 31.7533L 6.61608 38.6755C 6.61608 39.2389 6.01824 39.8023 5.22112 39.8023L 1.39496 39.8023C 0.557982 39.8023 0 39.1987 0 38.6755L 0 1.97201C 0 0.16098 0.518126 0 3.30804 0C 6.53636 0 6.61608 0.24147 6.61608 1.97201L 6.61608 22.8189L 17.4569 12.315C 18.6526 11.1881 19.3301 11.2686 21.4425 12.6772C 23.794 14.2065 23.9534 14.6492 22.8374 15.7358L 14.7865 23.7043L 24.4317 36.3413Z" transform="translate(152 1)" fill="white"/>
</g>
</g>
</g>
</svg>

