<svg width="25" height="21" viewBox="0 0 25 21" version="1.1" xmlns="http://www.w3.org/2000/svg" xmlns:xlink="http://www.w3.org/1999/xlink">
<title>twitter</title>
<desc>Created using Figma</desc>
<g id="Canvas" transform="translate(-747 -2274)">
<g id="twitter">
<mask id="mask0_outline" mask-type="alpha">
<g id="Clip 2">
<use xlink:href="#path0_fill" transform="translate(747.57 2274.91)" fill="#FFFFFF"/>
</g>
</mask>
<g id="Fill 1" mask="url(#mask0_outline)">
<use xlink:href="#path1_fill" transform="translate(747.565 2274.91)" fill="#333333"/>
</g>
</g>
</g>
<defs>
<path id="path0_fill" fill-rule="evenodd" d="M 0 20.0843L 23.7891 20.0843L 23.7891 0L 0 0L 0 20.0843Z"/>
<path id="path1_fill" fill-rule="evenodd" d="M 23.7944 2.37818C 22.9189 2.78155 21.978 3.05417 20.9905 3.17678C 21.9985 2.54908 22.7725 1.55516 23.137 0.37091C 22.1938 0.95205 21.149 1.37414 20.0371 1.60164C 19.1465 0.615952 17.8778 0 16.4738 0C 13.7777 0 11.592 2.27076 11.592 5.07157C 11.592 5.46906 11.6352 5.85616 11.7184 6.22734C 7.66121 6.01584 4.06416 3.99673 1.65644 0.928359C 1.23624 1.67741 0.995501 2.54863 0.995501 3.47807C 0.995501 5.23758 1.8574 6.78994 3.16727 7.6994C 2.36699 7.67309 1.61432 7.44496 0.956074 7.0651C 0.955726 7.08626 0.955726 7.1075 0.955726 7.12884C 0.955726 9.58614 2.63845 11.636 4.87167 12.1019C 4.462 12.2178 4.03074 12.2797 3.58547 12.2797C 3.27093 12.2797 2.96509 12.248 2.66709 12.1888C 3.28825 14.2037 5.09108 15.67 7.22726 15.7109C 5.55654 17.0712 3.45161 17.882 1.16452 17.882C 0.770517 17.882 0.381907 17.858 0 17.8112C 2.16037 19.2501 4.72641 20.0897 7.48323 20.0897C 16.4624 20.0897 21.3725 12.3616 21.3725 5.65967C 21.3725 5.43977 21.3678 5.22104 21.3584 5.00357C 22.3122 4.28852 23.1399 3.39524 23.7944 2.37818Z"/>
</defs>
</svg>
